<?xml version="1.0" encoding="UTF-8"?>
<svg id="Elefant" xmlns="http://www.w3.org/2000/svg" viewBox="0 0 313.34 338.65">
  <defs>
    <style>
      .cls-1, .cls-2 {
        fill: #a8cf8a;
      }

      .cls-1, .cls-3, .cls-4 {
        stroke-width: 0px;
      }

      .cls-2, .cls-5 {
        stroke: #a1c184;
        stroke-miterlimit: 10;
        stroke-width: 2px;
      }

      .cls-3 {
        fill: #c4ddac;
      }

      .cls-5 {
        fill: none;
      }

      .cls-4 {
        fill: #a1c47a;
      }
    </style>
  </defs>
  <path class="cls-1" d="m146.98,101.38c0,1.1-.39,20.37-12.7,26.41-13.15,6.46-29.17-7.46-34.03-11.68-19.59-17.02-29.07-48.81-17.78-72.38,1.6-3.35,9.15-19.1,22.1-20.32,14.81-1.39,26.52,17.21,28.95,21.08,4.98,7.91,6.52,15.01,9.4,28.19,2.55,11.71,3.6,21.65,4.06,28.7Z"/>
  <path class="cls-1" d="m211.23,275.99c-.24-12.07-.45-22.5,4.57-33.9,8.23-18.67,28.06-34.42,35.17-30.35,6.77,3.87-4.17,22.08-7.49,68.19-1.83,25.46.02,40.55-6.35,42.67-6.03,2.01-15.27-9.02-19.43-16-5.94-9.99-6.26-19.74-6.48-30.6Z"/>
  <path class="cls-1" d="m281.83,163.35c6.36,1.98,10.18-5.02,19.56-3.56,6.18.97,11.39,5.08,10.92,6.86-.83,3.13-18.98-2.51-23.19,4.29-2.36,3.82,2.29,7.33,2.87,17.81.14,2.49.86,14.09-5.08,20.57-5.71,6.23-13.55,3.35-27.3,4.95-21.5,2.51-22.95,11.95-44.57,16.64-18.93,4.1-34.69.47-41.14-1.02-14.23-3.28-37.74-8.69-47.75-29.59-10.05-20.98.74-42.53,1.27-43.56,2.75-5.28,7.79-14.97,18.03-19.05,18.41-7.34,28.44,13.48,55.37,11.87,18.63-1.11,22.65-11.61,45.22-10.46,7.73.39,16.23.94,22.84,6.97,7.56,6.88,6.4,15.23,12.95,17.27Z"/>
  <path class="cls-4" d="m189.33,141c-13.69-2.37-20.61-5.58-25.59-1.45-.95.79-1.57,1.63-1.95,2.22,7.27,5.49,19.82,13.05,36.05,14.04,6.25.38,16.6.86,23.37-5.8,3.18-3.13,5.83-8.08,4.49-9.73-1.29-1.58-5.54.87-11.45,2.23-7.01,1.62-12.98.56-24.91-1.51Z"/>
  <path class="cls-1" d="m246.53,122.33c-10.7,22.62-37.33,30.34-57.14,26.16-3.02-.64-27.13-6.1-33.02-25.78-4.19-14.02,3.4-26.77,5.08-29.59,14.97-25.13,58.83-40.2,79.24-20.57,12.36,11.88,13.38,33.84,5.84,49.78Z"/>
  <path class="cls-4" d="m141.39,164.87c-11.53,7.74-18.75,10.21-19.5,16.64-.14,1.23-.01,2.27.13,2.96,9.05-1.06,23.34-4.26,35.76-14.77,4.78-4.05,12.59-10.85,12.88-20.34.13-4.46-1.38-9.87-3.48-10.13-2.03-.25-3.4,4.46-6.73,9.52-3.95,6.02-9,9.38-19.05,16.13Z"/>
  <path class="cls-1" d="m74.09,138.46c13.25,5.17,26.14-1.37,28.57-2.67,13-6.95,11-16.01,24.89-24.51,4.03-2.47,15.95-9.75,26.03-5.33,11.39,4.98,15.08,22.53,12.07,35.12-1.3,5.43-4.39,12.2-13.84,20.76-3.89,3.52-29.32,26.54-62.98,24.63-45.93-2.6-76.68-49.86-85.08-84.83-1.22-5.1-7.25-31.93,3.81-61.46,3.42-9.12,8.92-23.82,15.75-23.62,11.34.33,28.37,41.88,27.94,77.21-.07,5.55-.66,18.04,6.6,29.97,2.08,3.41,6.88,11.07,16.25,14.73Z"/>
  <path class="cls-2" d="m21.22,9.33c.94,2.02,2.26,6.22.73,7.38-2.42,1.83-12.02-3.85-13.49-11.47-.22-1.13-.58-3.01.38-3.81,2.03-1.7,9.53,1.79,12.38,7.9Z"/>
  <path class="cls-2" d="m38.36,5.55c-.02-.39-.1-1.96-1.19-2.83-2.32-1.84-7.46.85-10.29,3.43-1.29,1.18-3.1,2.88-3.52,5.67-.09.59-.58,3.82.96,4.88,3.12,2.16,14.36-4.81,14.04-11.15Z"/>
  <path class="cls-4" d="m250.34,271.04c-4.47,30.54-7.63,51.27-13.87,51.71-4.97.35-9.83-12.33-11.53-18.57-2.84-10.45-1.21-19,1.65-33.13,1.4-6.92,3.39-16.47,8.63-28.2,4.04-9.05,10.32-15.32,8.72-17.01-1.23-1.29-5.39,1.71-14.94,2.53-2.2.19-4.57.46-4.74-.12-.15-.5,1.39-1.63,12.48-6.3,10.2-4.3,15.33-6.43,16.51-5.9,5.2,2.32,2.74,16.31-2.92,55Z"/>
  <path class="cls-1" d="m150.02,257.1c-6.1,30.14-14.18,70.06-32,71.52-8.26.68-15-7.2-17.14-9.71-16.76-19.61-3.15-52.74,2.1-65.52,4.21-10.24,14.6-35.54,32.95-37.9,1.87-.24,7.48-.96,11.81,2.29,6.02,4.52,7.22,14.96,2.29,39.33Z"/>
  <path class="cls-1" d="m236.37,264.43c1.16-5.32,3.68-16.85,6.86-26.29,5.31-15.77,8.69-25.83,18.16-30.86,1.58-.84,9.87-5,17.78-1.78,2.97,1.21,8.41,4.5,13.59,20.44,5.07,15.61,5.33,29.35,4.95,39.49-.95,25.73-1.5,40.6-12.06,54.35-2.19,2.84-15.72,20.46-30.22,17.52-15.86-3.21-21.27-28.65-21.84-31.49-2.58-12.86.08-27.5,1.27-34.03.43-2.34.88-4.42,1.52-7.37Z"/>
  <path class="cls-4" d="m145.33,253.76c-7.55,19.32-22.87,73.95-27.3,74.86-2.84.58-5.41-.72-5.41-.72-.72-.25-1.52-.58-2.37-1.01-.79-.4-1.48-.82-2.07-1.22.59-1.31,1.49-3.34,2.51-5.86,8.06-19.88,5.78-25.94,12.57-44.62,3.61-9.93,5.66-12.08,6.76-19.24.32-2.08.72-5.6,2.67-9.9,1.63-3.6,2.39-3.44,4.89-7.78,3.96-6.87,3.26-9.38,7.11-13.46,1.88-1.99,4.91-4.44,5.97-3.73.72.49.3,2.28.17,2.87-2.26,9.85-1.83,20.4-5.51,29.81Z"/>
  <path class="cls-1" d="m181.45,292.81c-8.68,22.01-26.49,36.06-40.19,40.19-3.49,1.05-11.28,3.4-16.86-.57-.5-.36-2.88-2.11-4.43-5.97-3.9-9.66,1.8-21.81,11.77-45.65,8.18-19.56,10.99-22.45,11.63-32.19.42-6.41-.38-11.34,2.66-18.28.9-2.06,5.91-13.53,14.48-14.1,6.36-.42,11.3,5.4,14.48,9.14,8.66,10.21,10.2,21.94,11.05,29.14.71,6.03,2.29,20.91-4.57,38.29Z"/>
  <path class="cls-3" d="m29.83,98.33c3.32,14.59,9.26,25.4,14.45,34.87,4.29,7.82,6.44,11.73,8.02,13.7,4.04,5.02,7.61,7.55,8,12.38.02.3.41,5.78-2.29,7.43-5.59,3.42-23.55-10.18-33.62-27.46-7.15-12.28-8.73-23.69-10.95-39.78-1-7.27-2.2-19.23-1.17-34.09.53-7.67,2.43-35.16,10.32-36.39,2.56-.4,4.98,2.09,6.48,3.62,5.7,5.84,4.17,14.81,3.81,16.95-.76,4.48-2.53,7.54-3.2,8.8-6.26,11.77-2.63,27.73.15,39.96Z"/>
  <path class="cls-3" d="m124.88,74.21c-2-.57-3.36-1.97-4.83-4.06-4.64-6.63-3.17-9.94-6.6-13.59-2.6-2.76-7.36-5.03-10.29-3.56-2.85,1.43-1.82,5.34-5.59,13.08-1.81,3.72-3.49,7.17-5.71,7.24-2.97.09-6.04-5.87-6.98-10.67-2.52-12.78,7.37-30.68,19.56-31.24,6.53-.3,11.51,4.48,16.89,9.65,2.17,2.09,11.01,11,11.68,23.11.15,2.71.34,7.23-2.54,9.27-2.32,1.64-5.43.81-5.59.76Z"/>
  <path class="cls-3" d="m238.53,90.46c2.31-3.96-2.15-11.03-4.95-13.97-13.01-13.67-54.01-5.16-64.76,14.98-.44.82-5.7,10.67-2.29,14.22,2.05,2.13,6.46,1.19,7.79.91,4.68-1,6.66-3.56,10.49-6.37,8.74-6.39,18.24-7.54,20.95-7.87,6.19-.75,12,.01,12.83.13,5.99.82,9.75,2.45,14.98.89,1.91-.57,3.93-1.18,4.95-2.92Z"/>
  <path class="cls-3" d="m265.45,196.87c-3.75,3.42-7.83,5.29-18.03,8-10.22,2.72-21.24,5.58-38.1,6.6-1.3.08-16.2.89-33.4-2.67-3.32-.69-7.92-1.78-11.3-5.71-3.41-3.97-5.32-10.54-2.79-15.37,2.15-4.09,6.77-5.54,9.65-6.35,14.86-4.17,23.23-2.43,40.63-3.81,8.21-.65,30.19-2.93,35.41-.41.41.2,2.07,1.08,4.21.92,1.55-.11,2.55-.7,4.7-1.78,2.19-1.1,4.57-2.19,5.46-2.54,3.81-1.5,9.73-.96,11.94,1.78,3.49,4.32-1.52,15.08-8.38,21.33Z"/>
  <path class="cls-3" d="m174.66,270.27c-.02,10.37-.03,18.54-4.7,28.57-.55,1.18-12.45,26.14-26.92,24.76-.33-.03-5.86-.64-9.14-4.95-4.36-5.72-1.75-13.99-.76-17.14,1.46-4.64,2.88-5.39,13.59-21.21,4.66-6.88,5-7.64,5.33-8.51,2.92-7.66.41-12.53,4.5-17.22.59-.68,2.69-3.09,5.85-3.35,4.34-.36,7.61,3.57,8.44,4.57,3.24,3.9,3.82,8.69,3.81,14.48Z"/>
  <path class="cls-3" d="m261.17,265.76c-.8,11.75-1.2,17.63-.38,22.57,1.52,9.22,3.33,14.76,3.33,14.76,1.21,3.72,2.25,5.93,2.29,9.71.03,2.48,0,6.52-2.86,9.71-.6.67-3.01,3.35-6.19,3.43-6.88.17-12.49-11.94-14.48-18.95-1.11-3.92-1.4-7.33-1.71-11.05-.49-5.86-.28-10.69,0-14.1.51-6.19,3.08-37.68,12.48-38.95,2.82-.38,5.24,2.09,5.81,2.67,3.38,3.45,2.53,8.25,1.71,20.19Z"/>
  <path class="cls-3" d="m142.66,130.08c-3.36,13.45-17.77,19.75-25.46,23.11-6.25,2.73-10.76,3.41-15.05,2.29-1.36-.36-7.29-1.93-8.13-6.1-.45-2.26.84-4.69,2.29-6.1,1.84-1.78,3.79-1.75,7.11-2.67,0,0,2.1-.58,9.02-3.94,12.06-5.86,11.02-19.63,20.57-22.48,1.01-.3,4.48-1.34,7.11.38,4.19,2.74,3.7,10.83,2.54,15.49Z"/>
  <path class="cls-5" d="m128.82,109.48c-.28-.5-.75-1.29-1.4-2.21-5.05-7.16-10.42-7.07-15.17-11.54-7.96-7.48-6.32-20.34-6.22-21.02.57-4.05,2.06-7.16,3.17-9.08"/>
  <path class="cls-5" d="m165.8,119.87c.25-.08.66-.21,1.15-.36,14.87-4.58,22.3-6.86,28.88-5.37,2.79.63,8.54,2.64,14.29,10.86"/>
  <path class="cls-4" d="m312.17,165.74c.13.21.28.51.17.67-.44.63-4.06-2.23-8.93-3.38-5.59-1.32-11.04.04-11.47.15-1.64.43-3.33.64-4.96,1.09-2.03.56-3.53,1.13-4.41.38-.43-.37-.78-1.1-.62-1.27.09-.09.3,0,.6.09,0,0,.29.09,1.73.23.25.02,1.04.08,2.96-.57,1.29-.44,2.01-.82,2.98-1.27,0,0,1.61-.74,4.09-1.59,1.46-.5,4.21-1.07,8.73-.16,1.66.3,4.58,1.1,7.19,3.46.8.73,1.43,1.47,1.93,2.17Z"/>
</svg>