<?xml version="1.0" encoding="UTF-8"?>
<svg id="Kort" xmlns="http://www.w3.org/2000/svg" viewBox="0 0 203.02 324.65">
  <defs>
    <style>
      .cls-1 {
        stroke: #7b7b7b;
      }

      .cls-1, .cls-2 {
        fill: #fff;
      }

      .cls-1, .cls-3 {
        stroke-miterlimit: 10;
      }

      .cls-4 {
        fill: #79161e;
      }

      .cls-4, .cls-5, .cls-2, .cls-6, .cls-7, .cls-8 {
        stroke-width: 0px;
      }

      .cls-5, .cls-3 {
        fill: #de3b15;
      }

      .cls-6 {
        fill: #f3ec80;
      }

      .cls-7 {
        fill: #e5251f;
      }

      .cls-8 {
        fill: #8b1818;
      }

      .cls-3 {
        stroke: #d12d17;
        stroke-width: 3px;
      }
    </style>
  </defs>
  <rect class="cls-3" x="20.22" y="92.08" width="21.26" height="15.9" transform="translate(-.86 .27) rotate(-.49)"/>
  <path class="cls-8" d="m31.68,90.11c-4.38,1.31-8.76,2.62-13.14,3.94-5.23-4.12-10.46-8.23-15.68-12.35,53.9-5.32,107.81-10.65,161.71-15.97,1.48.51,2.96,1.02,4.44,1.52-45.78,7.62-91.56,15.24-137.33,22.86Z"/>
  <path class="cls-3" d="m68.67,1.71c-2.41-.25-32.91-2.93-53.38,21.65C-5.32,48.12,3.09,77.89,3.77,80.13c51.39-4.25,102.79-8.5,154.18-12.74-1.51-6.35-8.65-33.34-35.28-51.33C99.56.44,75.99,1.19,68.67,1.71Z"/>
  <path class="cls-1" d="m177.52,52.52c-50.96,5.38-101.93,10.75-152.89,16.13,2.67,57.02,5.33,114.03,8,171.05,50.71-2.62,101.42-5.25,152.13-7.87-2.41-59.77-4.83-119.53-7.24-179.3Z"/>
  <path class="cls-1" d="m184.76,231.82c-50.71,2.62-101.42,5.25-152.13,7.87-1.35-52.63-2.71-105.27-4.06-157.9,49.21-5.71,98.41-11.43,147.62-17.14,2.86,55.72,5.71,111.45,8.57,167.17Z"/>
  <path class="cls-1" d="m178.03,225.47c-47.07-1.65-94.14-3.3-141.21-4.95-1.99-44.99-3.98-89.99-5.97-134.98,46.18-5.84,92.36-11.68,138.54-17.52,2.88,52.49,5.76,104.97,8.63,157.46Z"/>
  <path class="cls-1" d="m168.38,69.6c-45.17,4.38-90.35,8.76-135.52,13.14,2.89,46.48,5.78,92.95,8.67,139.43,45.45.06,90.89.12,136.34.18-3.16-50.92-6.32-101.84-9.48-152.75Z"/>
  <path class="cls-1" d="m165.58,73.22c-42.41,6.16-84.83,12.32-127.24,18.48.65,42.65,1.29,85.29,1.94,127.94,47.02-.42,94.03-.85,141.05-1.27-5.25-48.38-10.5-96.76-15.75-145.14Z"/>
  <path class="cls-1" d="m196.19,64.33c-50.57,6.18-101.14,12.36-151.7,18.54,1.38,46.94,2.76,93.88,4.15,140.83,49.48-1.19,98.96-2.37,148.44-3.56-.3-51.94-.59-103.87-.89-155.81Z"/>
  <path class="cls-4" d="m46.34,323c-9.1-9.23-18.2-18.45-27.3-27.68-.17-67.09-.34-134.18-.51-201.27,10.42,5.34,20.83,10.67,31.25,16.01-1.15,70.98-2.29,141.96-3.44,212.94Z"/>
  <path class="cls-8" d="m39.87,312.2c-5.76-6.6-11.51-13.21-17.27-19.81.13-63.45.25-126.9.38-190.35,5.93,3.68,11.85,7.37,17.78,11.05-.3,66.37-.59,132.74-.89,199.11Z"/>
  <path class="cls-7" d="m60.72,114.35c-2.22-.13-5.19,3.9-4.75,7.49.13,1.03.53,2.01,3.32,5.43,2.15,2.64,4.08,4.7,5.48,6.13,6.18-4.06,9.83-9.49,8.87-14.15-.57-2.78-2.92-5.9-4.7-5.67-1.82.23-2.13,3.86-3.98,3.98-1.75.11-2.32-3.08-4.24-3.2Z"/>
  <path class="cls-7" d="m68.38,107.67c-1.86-5.84-3.72-11.67-5.58-17.51-.6-.07-1.21-.13-1.81-.2-.96,2.56-1.88,5.33-2.74,8.32-1.06,3.7-1.85,7.19-2.45,10.42-.75.11-1.5.23-2.25.34-.07.57-.14,1.14-.21,1.71,2.07.02,4.13.04,6.2.07.01-.73.02-1.46.03-2.18-.52.05-1.04.11-1.57.16.41-1.65.82-3.29,1.22-4.94,1.76-.07,3.51-.14,5.27-.21l.52,4.43c-.85.17-1.71.35-2.56.52.1.52.2,1.04.29,1.57,2.54-.16,5.09-.33,7.63-.49.05-.57.1-1.14.16-1.71-.72-.1-1.44-.2-2.16-.3Z"/>
  <path class="cls-2" d="m61.4,97.54c.25,1.34.5,2.67.75,4.01h-2.18c.48-1.34.96-2.67,1.43-4.01Z"/>
  <path class="cls-7" d="m119.47,153.94c-4.45-.3-10.42,8.7-9.54,16.71.25,2.29,1.06,4.49,6.66,12.11,1.88,2.56,3.45,4.38,4.71,5.74,2.72,2.92,3.24,3.18,4.18,4.78,2.2,3.72,1.89,7.29,2.48,7.28.54,0,.25-3.03,1.9-6.33,1.14-2.28,2.46-3.18,5.14-5.72,1.07-1.02,4.89-4.64,6.87-7.36,3.13-4.31,4.6-10.51,3.52-16.29-1.15-6.19-5.85-13.17-9.42-12.66-3.65.52-4.27,8.61-7.98,8.88-3.52.26-4.65-6.87-8.51-7.13Z"/>
  <path class="cls-3" d="m201.52,308.01c-51.72,4.99-103.45,9.99-155.17,14.98-.62-70.87-1.24-141.73-1.86-212.6l6.46-.42c1.54,11.03,3.52,20.13,5.14,26.71,4.04,16.37,8.62,34.32,19.14,47.38,5.45,6.77,12.56,13.25,12.56,13.25,1.31,1.19,5.24,4.77,8.48,7.04,11.88,8.31,26.74,7.57,29.52,7.43,22.82-1.14,38.18-19.81,44.38-27.33,14.12-17.16,18.07-35.35,21.9-53.05,3.46-15.97,4.18-29.61,4.18-39.12,1.66-.2,3.33-.4,4.99-.59.08,72.11.17,144.21.25,216.32Z"/>
  <g>
    <path class="cls-6" d="m102.24,243.17c.9.31.87,5.34-1.34,9.93-2.43,5.04-5.91,6.28-5.59,9.38.23,2.24,2.2,3.07,4.09,5.16,2.26,2.5,4.59,6.99,4.07,15.69-1.52.04-3.04.08-4.57.11-.5-2.1-3.58-14.83-5.74-14.58-2.18.25-2.29,13.53-2.3,15.67-1.04.01-2.09.02-3.13.04-.42-6.2-.84-12.41-1.26-18.61.33-4.57.04-8.29-.32-10.95-.82-6.08-2.54-10.65-1.01-11.57.76-.46,1.93.24,2.24.4,4.69,2.51,2.44,12.45,4.62,13.08,2.74.79,8.59-14.31,10.24-13.74Z"/>
    <g>
      <path class="cls-6" d="m125.61,262.2c1.68,6.87.76,16.53-3.84,18.4-1.99.81-4.05-.1-4.8-.5-5.39-2.88-5.37-12.58-5.37-16.69,0-2.69.02-13.75,3.76-14.73,3.33-.87,8.54,6.54,10.25,13.52Z"/>
      <ellipse class="cls-5" cx="118.98" cy="266.38" rx="4.09" ry="7.11" transform="translate(-14.04 6.73) rotate(-3.06)"/>
    </g>
    <g>
      <path class="cls-6" d="m137.85,270.89c-.53.21-.08,2.75.11,3.82.44,2.48,1.02,3.42.48,4.15-.56.76-1.91.72-2.28.64-1.8-.34-3.64-5.51-3.36-28.03.73-.5,1.86-1.15,3.35-1.45,4.12-.85,9.81,1.13,11.17,5.57.85,2.76.04,6.48-2.23,7.86-2.61,1.59-5.99-.63-6.73.56-.53.84.95,2.32,3.25,5.8,1.04,1.58,5.4,8.17,4.24,9.28-.49.47-1.83-.2-2-.29-1.58-.8-1.73-2.21-3.5-5.01-.62-.98-1.98-3.11-2.51-2.9Z"/>
      <path class="cls-5" d="m143.12,257.71c.13,1.37-1.63,2.62-1.81,2.75-2.14,1.48-4.64.51-4.88.42-.11-2.13-.23-4.25-.34-6.38,4.1.03,6.87,1.59,7.03,3.22Z"/>
    </g>
    <path class="cls-6" d="m164.31,276.51c-.33.24-.97.38-2.38-.56-.3-5.39-1.02-9.77-1.67-12.91-.99-4.81-1.68-6.01-2.62-6.82-2.61-2.24-6.16-.56-6.89-2.37-.38-.95.18-2.43.99-3.28,2.31-2.42,5.47,1.61,10.69-.08,1.74-.57,2.96-1.53,4.75-.94,1.08.36,2.48,1.32,2.44,2.26-.09,1.88-5.86,1.06-7.46,4.63-.64,1.43-.11,2.45,1.13,8.27,2.22,10.45,1.41,11.52,1.02,11.81Z"/>
  </g>
</svg>