<?xml version="1.0" encoding="UTF-8"?>
<svg id="Ballondyr" xmlns="http://www.w3.org/2000/svg" viewBox="0 0 329.13 404.85">
  <defs>
    <style>
      .cls-1 {
        fill: #f8e1ef;
      }

      .cls-1, .cls-2, .cls-3 {
        stroke-width: 0px;
      }

      .cls-2 {
        fill: #e8bbd9;
      }

      .cls-3 {
        fill: #f0bbd7;
      }
    </style>
  </defs>
  <path class="cls-3" d="m131.66,1.6c16.33,12.74-24.84,106.85-40.38,103.49-9.18-1.99-10.9-38.31-1.65-66.03,3.29-9.88,10.89-32.66,28.95-37.71,3.3-.92,9.39-2.63,13.08.25Z"/>
  <path class="cls-3" d="m99.03,106.36c-7.42-6.87-3.38-22.43-.89-32,2.22-8.52,3.8-8.94,9.88-23.25,9.55-22.46,8.91-29.07,17.8-39.23,4.25-4.85,9.31-10.47,16.25-10.41,9.64.08,16.2,11.02,17.56,13.28,9.16,15.27,3.98,33.34.85,44.24-3.24,11.29-10.05,35.02-31.37,45.46-1.49.73-21.21,10.13-30.1,1.9Z"/>
  <path class="cls-3" d="m102.74,222.46c-16.81-9.01-20.84-28.99-24.48-46.95-2.79-13.78-9.07-44.85,6.86-63.24,1.94-2.24,10.64-12.28,18.48-10.29,3.14.8,5.05,3.25,5.9,4.38,20,26.6,24,48.67,24,48.67,1.53,8.43,11.14,61.41-9.14,70.67-8.42,3.84-18.38-1.5-21.62-3.24Z"/>
  <path class="cls-3" d="m270.84,273.79c-3.31,1.39-23.67,9.47-33.69-.51-8.01-7.99-4.5-22.66-3.07-28.63,2.51-10.47,7.69-16.8,16.57-27.62,9.86-12.02,17.01-20.49,28-21.9,7.44-.96,8.03,2.42,14.1,1.33,18.13-3.24,23.55-35.32,31.62-33.9,2.4.42,4.07,3.64,4.57,5.9,2.71,12.18-22.99,19.92-23.81,38.1-.28,6.09,2.57,6.11,2.48,14.29-.03,2.56-.4,11.05-8.95,24.76-7.09,11.36-13.96,22.38-27.81,28.19Z"/>
  <path class="cls-1" d="m298.93,225.93c-.15,4.59-2.78,8.05-6.76,12.29-5.32,5.67-14.41,14.18-15.43,13.19-.75-.73,4.24-5.27,11.19-16.86,5.23-8.72,7.5-14.65,9.38-14.2,1.32.32,1.68,3.61,1.62,5.58Z"/>
  <path class="cls-2" d="m236.11,272.12c4.42,4.73,11.61,5.84,12.46,5.97,3.79.55,6.94.04,8.91-.44-3.54-1.81-13.04-7.25-15.89-17.48-3.7-13.3,6.41-25.5,13.05-33.52,4.13-4.99,14.77-17.84,31.68-22,4.71-1.16,9.66-1.58,9.87-3.46.28-2.39-7.24-5.92-13.91-6.2-3.76-.15-6.86.75-8.06,1.14-2.94.95-4.95,2.26-5.87,2.86-10.39,6.83-19.54,20.27-19.54,20.27-9.01,13.23-13.53,19.84-15.32,27.85-1.42,6.35-4,17.94,2.61,25.02Z"/>
  <path class="cls-3" d="m229.81,392.83c-7.72,1.73-17.12-5.21-20-7.33-9.87-7.28-13.35-17.16-14.76-21.33-3.61-10.68.55-10.49-.76-33.9-.68-12.1-2.4-23.14,2.95-35.05,1.06-2.35,1.73-3.26,2.48-4,8.1-8.01,30.55-1.76,41.33,8,25.87,23.42,8.94,89.09-11.24,93.62Z"/>
  <path class="cls-3" d="m276.45,325.16c3.28,15.26,6.12,28.44,1.14,44.38-4.79,15.34-17.89,36.68-31.81,35.24-9.47-.98-15.42-12.11-16.48-14.1-6.49-12.15-.78-19.77-1.62-44.95-.5-14.98-2.56-13.66-3.24-31.43-.75-19.73-1.14-34.26,7.05-39.24,6.57-4,15.68-.02,17.9.95,18.19,7.94,23.4,32.19,27.05,49.14Z"/>
  <path class="cls-3" d="m238.84,257.41c2.41,13.29-5.96,27.67-16.19,34.86-10.55,7.41-22.46,6.09-46.29,3.43-21.43-2.39-32.8-3.66-45.71-11.43-4.54-2.73-33.93-20.41-30.48-42.48,3.18-20.29,31.65-28.49,33.33-28.95,15.07-4.13,27.14-.17,47.05,6.67,30.74,10.56,54.83,18.83,58.29,37.9Z"/>
  <path class="cls-3" d="m98.07,112.84c-1.85,9.63-11.06,14.93-11.62,15.24-10.93,6.09-23.65.75-44.95-8.57-18.66-8.16-29.66-13.16-36.39-25.45-1.98-3.61-7.46-13.62-3.61-22.94,4.52-10.96,19-13.86,22.1-14.48,33.94-6.8,79.18,31.77,74.48,56.19Z"/>
  <path class="cls-3" d="m98.41,248.17c-4.86,11.18-11.64,18.18-12.93,19.52-29.27,30.56-30.9,77.76-47.22,77.9-9.46.08-16.26-15.72-16.95-17.33-11.52-26.77,13.59-59.57,20.19-68.19,1.46-1.91.16-.08,15.62-17.9,11.87-13.69,14.89-17.38,21.14-20.38.95-.45,16.44-7.71,22.86-1.52,6.64,6.4-.63,23.13-2.71,27.9Z"/>
  <path class="cls-1" d="m154.39,39c-1.31,18.2-14.55,31.98-16,31.17-1.2-.67,6.26-11.01,10.03-31.17,1.97-10.51,1.83-17.81,2.98-17.84,1.27-.04,3.63,8.83,2.98,17.84Z"/>
  <path class="cls-1" d="m77.95,88.14c1.11.32,2.6.6,3.3,1.84.63,1.12.51,2.86-.19,3.56-3.11,3.06-22.48-9.48-21.33-12.19.51-1.21,5.3-.87,8.83.63,4.51,1.93,4.65,4.79,9.4,6.16Z"/>
  <path class="cls-1" d="m127.27,168.08c1.41,8.63,2.49,20.08,1.38,20.29-1.08.2-4.17-10.22-5.9-19.67-1.98-10.78-2.63-22.77-1.48-22.95,1.19-.19,4.33,12.13,6,22.33Z"/>
  <path class="cls-1" d="m227.88,255.03c-.59,1.88-16.79-1.5-27.14-4.29-9.96-2.68-26.54-8.07-26.1-10.05.42-1.87,15.98-.79,30.57,3.57,11.41,3.4,23.19,9.1,22.67,10.76Z"/>
  <path class="cls-1" d="m270.99,339.95c.16,12.49-4.99,23.54-6.6,23.24-1.23-.23.02-6.99-.25-24.89-.24-15.5-1.35-21.1-.25-21.33,1.57-.34,6.95,10.56,7.11,22.98Z"/>
  <path class="cls-2" d="m125.82,11.89c-2.74,2.71-5.22,6.21-11.07,21.78-3.08,8.19-2.95,8.72-5.48,15.27-4.04,10.45-5.11,11.03-7.95,18.32-4.95,12.69-8.98,23.03-4.78,32.46,2.32,5.2,7.01,9.81,9.22,8.94,3.46-1.36-3.89-14.26,1.46-28.83,3.67-9.99,9.6-10.61,13.52-23.37,1.06-3.44,1.6-7.04,2.67-14.23,1.68-11.22,1.34-15.73,4.57-21.84,1.76-3.33,3.68-6.6,3.68-6.6,3.37-5.73,4.91-7.56,4.44-8.06-.71-.77-5.99,1.9-10.29,6.16Z"/>
  <path class="cls-2" d="m90.79,70.22c2.38,3.92,5.63,4.8,6,8.62.15,1.56-.31,2.24-1.1,5.19-.62,2.33-1.31,5.6-1.62,9.71-3.49-4.63-6.98-9.27-10.48-13.9.13-4.29.27-8.57.4-12.86,2.53-8,3.71-9.68,4.31-9.57,1.16.22-1.17,6.82,2.48,12.81Z"/>
  <path class="cls-2" d="m12.74,84.01c1.56,5.58,6.54,8.96,9.71,11.11,7.14,4.85,10.45,2.6,21.52,7.37,3.56,1.53,2.33,1.38,14.86,8.32,9.86,5.46,14.85,8.19,17.4,8.25,10.59.25,17.43-10.56,20.13-8.44,1.76,1.38-.15,6.77-1.71,9.65-3.71,6.82-10.64,9.07-12.57,9.62-2.27.14-5.81.24-10.11-.12-5.98-.5-16.34-2.14-39.92-14.9-13.12-7.1-19.77-10.76-23.73-15.91-1.64-2.13-11.78-15.32-7.08-27.12,1.77-4.45,5.11-7.35,6.8-8.81,4.8-4.16,12.45-7.93,14.17-6.08,2.66,2.87-12.84,14.98-9.46,27.07Z"/>
  <path class="cls-2" d="m75.23,136.66c-1.83,8.09-.75,15.47,1.4,30.24.73,5.02,2.55,15.81,7.16,28.86,3.08,8.73,4.63,13.09,8.03,17.44,2.21,2.83,11.39,13.74,24.48,13.8,2.05,0,6.51-.03,10.7-2.87,5.19-3.51,8.8-10.53,6.79-13.58-.9-1.36-2.62-1.48-5.3-1.84-7.28-.99-19.99-2.72-24.63-9.49-.93-1.36-1.24-2.49-1.89-5.04-5.8-22.95-7.55-37.93-7.9-41.06-1.37-12.2-1.11-14.28-.1-16.67,2.08-4.88,5.36-6.31,7.43-13.24,1.12-3.77.75-5.34,2.38-6.76,3.97-3.45,11.64,1.11,12.48-.38.9-1.61-5.94-10.64-14.32-10.99-11.95-.49-23.38,16.82-26.72,31.57Z"/>
  <path class="cls-2" d="m42.43,258.93c-2.16,2.67-5.11,6.52-8.29,11.38-3.4,5.19-7.63,11.73-11.14,20.89-2.51,6.53-4.4,11.5-4.7,18.66-.42,9.93,2.53,17.25,3.34,19.14,2.39,5.63,5.54,9.64,7.79,12.11,1.02,1.07,4.81,4.78,9.89,4.41,1.56-.11,2.39-.12,2.95-.74,2.34-2.58-4.61-10.01-9.9-24.16-3.39-9.05-3.24-13.21-3.11-14.86.23-3.09.9-4.23,4.44-12.98,6.2-15.33,7.36-19.73,8-23.65.73-4.42.78-8.05.74-10.2Z"/>
  <path class="cls-2" d="m133.62,285.96c2.56,1.4,9.15,4.27,17.27,6.17,3.66.86,6.43,1.23,8.8,1.55,19.21,2.55,28.82,3.83,36.46,3.94,13.73.19,18.9-1.47,22.1-2.8,3.93-1.63,11.37-5.46,10.8-7.62-.99-3.76-24.38,3.62-55.81-1.9-27.03-4.75-31.71-14.08-32.7-16.35-1.68-3.85.03-4.06-2.29-15.71-1.95-9.82-3.84-13.13-4.51-22.1-.56-7.44.33-10.63,1.76-13.15,2.07-3.63,5.17-5.67,7.13-6.71-2.2.05-5.18.35-8.53,1.43-2.37.77-4.33,1.73-5.86,2.62-2.28,2.27-5.6,6.06-8.21,11.45-10.36,21.39-1.35,51.04,13.57,59.19Z"/>
  <path class="cls-2" d="m194.17,328.38c1.6,19.18-2.99,19.54-.39,30.9.51,2.24,3.65,15.14,14.94,24.68,8.23,6.96,19.47,11.02,21.08,8.86,1.27-1.71-3.24-7.61-7.24-11.27-6.92-6.32-11.42-5.09-15.37-9.78-1.49-1.77-2.71-4.16-2.79-20.57-.07-13.09-.1-20.13,1.52-30.35,1.61-10.12,2.41-15.18,5.21-21.08,3.44-7.27,5.78-9.93,4.83-11.05-.99-1.17-5.38-.13-19.69,8.82-.38.99-.86,2.38-1.31,4.08-.77,2.89-1.09,5.38-1.25,7.27-.48,5.66-.28,10.75.45,19.47Z"/>
  <path class="cls-2" d="m224.89,310.93c.09,7.15.47,13.85,1.02,20.06,1.4,15.83,3.01,17.82,2.43,26.69-.68,10.29-2.9,11.29-2.17,19.78.38,4.41,1.04,11.13,5.76,17.51,1.04,1.41,7.28,9.84,16.09,9.83,3.5,0,8.03-1.34,8.37-3.46.28-1.76-2.35-3.45-3.68-4.44-6.49-4.81-8.73-12.34-11.68-22.22-3.24-10.85,1.05-12.26,0-27.94-1.06-15.79-5.64-17.82-7.05-37.71-.87-12.31.53-16.57,2.48-19.71,5.19-8.41,14.52-9.31,13.96-12.54-.55-3.2-10.3-5.91-17.45-2.43-1.93.94-3.31,2.16-4.24,3.12-1.39,3.04-2.77,6.82-3.72,11.25-1.96,9.21-1.13,17.11-.13,22.22Z"/>
  <path class="cls-3" d="m88.17,240.08c1.29-2.27,10.16-17.91,21.71-17.52,12.55.42,22.16,19.55,23.33,33.33.47,5.55-.32,11.52-1.05,17.05-.32,2.44-1.34,9.57-4,18.86-3.87,13.49-8.82,23.21-14.19,33.62-4.11,7.96-6.16,11.93-8.76,15.52-5.01,6.91-12.59,17.37-25.81,21.81-3.22,1.08-19.85,6.67-30.29-2.29-12.03-10.33-6.4-31.94-5.81-34.1,3.4-12.37,9.06-11.69,24.25-35.92,6.86-10.94,10.29-16.41,13.26-25.21,4.21-12.43,2.47-16.57,7.34-25.16Z"/>
  <path class="cls-1" d="m123.69,274.74c-2.78,14.54-11.64,25.45-12.84,24.86-.92-.45,2.95-7.45,7.04-23.33,3.62-14.09,4-21.87,5.05-21.81,1.18.07,2.74,9.92.76,20.29Z"/>
  <path class="cls-2" d="m49.12,360.46c6.19,5.07,13.74,5.12,16.7,4.97-3.26-2.04-8.62-6.09-11.62-12.97-4.94-11.31-.26-22.74,2.29-28.95,5.09-12.42,9.81-11.9,20.14-28.89,3.51-5.78,8.18-13.46,11.74-24.45,4.23-13.09,2.56-17.51,6.73-27.05,4.12-9.4,10.52-16.01,16.03-20.47-.65-.12-1.6-.25-2.73-.17,0,0-2.07.13-4.18,1.12-7.61,3.57-12.95,12.86-12.95,12.86-4.28,7.44-5.53,12.35-9.11,22.54-3.56,10.12-5.34,15.19-7.89,20.54-1.3,2.73-2.44,4.8-3.58,6.62-6.13,9.77-10.57,15.24-14.86,20.98-8.31,11.11-13.07,17.47-14.43,26.65-.39,2.64-2.68,18.13,7.75,26.67Z"/>
</svg>