<?xml version="1.0" encoding="UTF-8"?>
<svg xmlns="http://www.w3.org/2000/svg" viewBox="0 0 7343.13 5457.33">
  <defs>
    <style>
      .cls-1 {
        fill: #241814;
      }

      .cls-1, .cls-2, .cls-3, .cls-4, .cls-5, .cls-6 {
        stroke-width: 0px;
      }

      .cls-2 {
        fill: #2b2a2b;
      }

      .cls-3 {
        fill: #e83e65;
      }

      .cls-4 {
        fill: #282627;
      }

      .cls-5 {
        fill: #e0072e;
      }

      .cls-6 {
        fill: #3d3333;
      }
    </style>
  </defs>
  <g id="Hat">
    <g>
      <path class="cls-1" d="m5355.21,1373.22c96.83,1187.16,193.66,2374.32,290.49,3561.47-149.32,107.18-371.58,247.63-656.22,358.73-163.51,63.82-436.84,152.8-1542.45,163.06-963.01,8.94-1235.52-54.11-1501.86-171.21-208.43-91.64-371.43-198.07-480.32-277.21,74.42-1209.37,148.83-2418.74,223.25-3628.11,1222.37-2.25,2444.74-4.5,3667.11-6.75Z"/>
      <path class="cls-6" d="m2179.74,1512.2c103.7,2637.36-70.94,3269.15-263.27,3318.77-59.33,15.31-134.92-21.03-182.62-67.97-218.07-214.57-37.54-831.69,53.29-1345.85,80.58-456.09,140.36-1112.92,34.2-1965.05,119.47,20.03,238.93,40.07,358.4,60.1Z"/>
      <path class="cls-5" d="m4807.23,994.48c219.1,52.29,395.87,110.21,509.64,150.42,12.78,76.11,25.56,152.21,38.34,228.32-84.9,37.54-197.42,84.27-331.49,131.62-78.24,27.63-261.16,91.7-455.52,134.31-172.33,37.78-294.43,45.69-667.49,59.09-444.73,15.98-667.1,23.97-721.61,21.49-280.58-12.75-541.85-62.22-1064.38-161.17-180.8-34.24-329.93-64.76-431.38-86.01,10.28-103.14,20.55-206.27,30.83-309.41,273.57-84.34,502.96-136.41,664.4-168.66,442.13-88.31,1344.21-258.8,2428.68,0Z"/>
      <path class="cls-3" d="m5122.25,1058.65c56.35,23.37,112.7,46.74,169.04,70.11,9.88,79.81,19.76,159.63,29.64,239.45-80.43,39.66-167.97,78.68-262.35,115.09-108.57,41.89-211.6,74.7-307.36,100.54-1.73-5.6-3.61-14-2.74-23.81,4.12-46.74,65.92-74.68,183.31-119.72,152.63-58.56,182.1-38.67,209.11-75.41,29.1-39.59,44.27-121.22-18.66-306.25Z"/>
      <path class="cls-4" d="m7335.84,1027.94c-42.65,117.84-264.13,172.75-438.79,216.04-281.38,69.75-531.11,52.93-1095.95-16.18-467.73-57.23-516.92-72.67-865.94-116.46-525.62-65.96-885.56-109.94-1348.52-109.99-294.37-.04-501.5,17.7-861.43,48.53-689.45,59.04-767.83,109.52-1289.88,148.82-603.55,45.43-1240.23,93.35-1397.81-115.21-104.66-138.52,40.85-338.8,59.33-363.51,107.24-143.42,285.18-210.82,422.93-258.89C1257.4,203.67,1962.66,109.58,2021.65,101.99c506.03-65.13,899.18-84.91,1023.79-90.58,222.71-10.14,884.44-34.22,1777.38,46.34,637.1,57.48,955.64,86.22,1325.56,199.53,570.18,174.64,1274.16,531.13,1187.46,770.67Z"/>
      <path class="cls-1" d="m5229.46,95.53c22.82,67.77,72.58,242.29,5.88,392.09-51.55,115.78-149.79,165.4-211.88,191.36-418.48,174.93-1318.21,162.18-1476.95,160.73-76.69-.7-927.04-7.4-1496.71-148.83-77.53-19.25-225.42-59.75-268.71-191.78-49.66-151.45,67.96-332.9,97.22-376.07,23-3.69,56.45-8.91,96.88-14.68,78.35-11.18,137.68-17.98,168.95-21.54,446.79-50.84,792.48-69.9,792.48-69.9,171.21-9.44,300.01-12.83,345.88-13.93,44.91-1.08,150.96-3.34,301.88-2.96,386.08.97,726.92,18.35,742.18,19.14,255.76,13.33,559.71,36.26,902.9,76.34Z"/>
    </g>
  </g>
  <g id="Logo">
    <path class="cls-2" d="m6974.01,644.41c45.06-4.43,261.45,267.25,81.18,423.6-117.66,102.05-340.65,99.77-536.7,97.75-256.49-2.63-492.34-59.09-487.09-85.91,8.54-43.65,641.91,64.61,865.94-130.34,142.35-123.87,40.6-301.56,76.67-305.11Z"/>
  </g>
</svg>