<?xml version="1.0" encoding="UTF-8"?>
<svg id="Hat" xmlns="http://www.w3.org/2000/svg" xmlns:xlink="http://www.w3.org/1999/xlink" viewBox="0 0 849.47 710.86">
  <defs>
    <style>
      .cls-1 {
        fill: #241814;
      }

      .cls-1, .cls-2, .cls-3, .cls-4, .cls-5 {
        stroke-width: 0px;
      }

      .cls-2 {
        fill: #2b2a2b;
      }

      .cls-3 {
        fill: #282627;
      }

      .cls-4 {
        fill: #e0072e;
      }

      .cls-5 {
        fill: #3d3333;
      }
    </style>
  </defs>
  <g>
    <path class="cls-1" d="m631.7,250.37c11.22,133.9,22.43,267.8,33.65,401.7-17.27,12.06-42.98,27.86-75.91,40.35-18.92,7.18-50.54,17.19-178.43,18.34-111.4,1.01-142.93-6.09-173.74-19.26-24.11-10.31-42.97-22.28-55.57-31.18,8.61-136.04,17.22-272.08,25.83-408.11,141.39-.61,282.78-1.22,424.17-1.83Z"/>
    <path class="cls-5" d="m264.35,265.32c12,296.67-8.21,367.74-30.46,373.32-6.86,1.72-15.61-2.37-21.13-7.65-25.23-24.14-4.34-93.55,6.16-151.39,9.32-51.3,16.24-125.19,3.96-221.04,13.82,2.25,27.64,4.51,41.46,6.76Z"/>
    <path class="cls-4" d="m568.3,207.09c25.35,5.88,45.8,12.4,58.96,16.92,1.48,8.56,2.96,17.12,4.43,25.68-9.82,4.22-22.84,9.48-38.35,14.81-9.05,3.11-30.21,10.32-52.7,15.11-19.94,4.25-34.06,5.14-77.22,6.65-51.45,1.8-77.17,2.7-83.48,2.42-32.46-1.43-62.68-7-123.13-18.13-20.92-3.85-38.17-7.28-49.9-9.68,1.19-11.6,2.38-23.2,3.57-34.8,31.65-9.49,58.18-15.34,76.86-18.97,51.15-9.93,155.5-29.11,280.96,0Z"/>
    <path class="cls-3" d="m848.63,209.95c-4.93,24.07-30.56,35.28-50.76,44.13-32.55,14.25-61.44,10.81-126.78-3.3-54.11-11.69-59.8-14.84-100.17-23.79-60.81-13.47-102.44-22.45-156-22.47-34.05,0-58.01,3.62-99.65,9.91-79.76,12.06-88.82,22.37-149.22,30.4-69.82,9.28-143.47,19.07-161.7-23.53-12.11-28.29,4.73-69.2,6.86-74.25,12.41-29.29,32.99-43.06,48.93-52.88C145.46,41.6,227.05,22.38,233.87,20.83c58.54-13.3,104.02-17.34,118.43-18.5,25.76-2.07,102.31-6.99,205.61,9.47,73.7,11.74,110.55,17.61,153.34,40.75,65.96,35.67,147.4,108.48,137.37,157.41Z"/>
    <path class="cls-1" d="m614.48,113.72c1.99,18.08-19.61,34.96-26.03,39.98-55.8,43.62-105.56-19.56-207.97-8.8-74.48,7.83-110.45,47.8-147.13,18.34-12.1-9.72-28.32-30.24-25.04-49.52,10.25-60.32,202.25-56.19,216.19-55.8,60.89,1.7,185.43,14.38,189.98,55.8Z"/>
    <path class="cls-2" d="m798.39,131.07c5.21-.91,30.25,55.16,9.39,87.43-13.61,21.06-39.41,20.59-62.09,20.18-29.67-.54-56.95-12.2-56.35-17.73.99-9.01,74.26,13.34,100.17-26.9,16.47-25.57,4.7-62.24,8.87-62.98Z"/>
  </g>
  <image width="487" height="119" transform="translate(293.63 426.83) scale(.54)" xlink:href="../../Desktop/image 1.png"/>
</svg>