<?xml version="1.0" encoding="UTF-8"?><svg id="Layer_1" xmlns="http://www.w3.org/2000/svg" width="7343.14" height="5457.22" viewBox="0 0 7343.14 5457.22"><defs><style>.cls-1{fill:#e83e65;}.cls-1,.cls-2,.cls-3,.cls-4,.cls-5,.cls-6{opacity:0;}.cls-2{fill:#282627;}.cls-3{fill:#3d3333;}.cls-7,.cls-4{fill:#241814;}.cls-8{fill:#2b2a2b;}.cls-5{fill:#e0072e;}</style></defs><g id="Hat"><path class="cls-4" d="M5355.22,1373.12c96.83,1187.16,193.66,2374.32,290.49,3561.47-149.32,107.18-371.58,247.63-656.22,358.73-163.51,63.82-436.84,152.8-1542.45,163.06-963.01,8.94-1235.52-54.11-1501.86-171.21-208.43-91.64-371.43-198.07-480.32-277.21,74.42-1209.37,148.83-2418.74,223.25-3628.11l3667.11-6.75v.02h0Z"/><path class="cls-3" d="M2179.75,1512.1c103.7,2637.36-70.94,3269.15-263.27,3318.77-59.33,15.31-134.92-21.03-182.62-67.97-218.07-214.57-37.54-831.69,53.29-1345.85,80.58-456.09,140.36-1112.92,34.2-1965.05,119.47,20.03,238.93,40.07,358.4,60.1h0Z"/><path class="cls-5" d="M4807.24,994.38c219.1,52.29,395.87,110.21,509.64,150.42,12.78,76.11,25.56,152.21,38.34,228.32-84.9,37.54-197.42,84.27-331.49,131.62-78.24,27.63-261.16,91.7-455.52,134.31-172.33,37.78-294.43,45.69-667.49,59.09-444.73,15.98-667.1,23.97-721.61,21.49-280.58-12.75-541.85-62.22-1064.38-161.17-180.8-34.24-329.93-64.76-431.38-86.01,10.28-103.14,20.55-206.27,30.83-309.41,273.57-84.34,502.96-136.41,664.4-168.66,546.37,24.29,1358.15,64.17,2428.68,0h-.02Z"/><path class="cls-1" d="M5122.26,1058.55c56.35,23.37,112.7,46.74,169.04,70.11,9.88,79.81,19.76,159.63,29.64,239.45-80.43,39.66-167.97,78.68-262.35,115.09-108.57,41.89-211.6,74.7-307.36,100.54-1.73-5.6-3.61-14-2.74-23.81,4.12-46.74,65.92-74.68,183.31-119.72,152.63-58.56,182.1-38.67,209.11-75.41,29.1-39.59,44.27-121.22-18.66-306.25h.01Z"/><path class="cls-2" d="M2961.53,15.46c27.42-1.45,53.63-2.75,78.47-3.9-20.15.93-46.49,2.19-78.47,3.9Z"/><path class="cls-2" d="M3607.54,0c69.13.29,136.62,1.09,200.82,2.21-70.8-1.31-137.83-2-200.82-2.21Z"/><path class="cls-2" d="M6148.39,698.78c-281.66-49.33-533.54-70.63-918.92-92.5h0c22.82,38.76,72.58,138.56,5.88,224.22-51.55,66.21-149.79,94.58-211.88,109.43-418.48,100.03-1318.21,92.74-1476.95,91.91-76.69-.4-927.04-4.23-1496.71-85.11-77.53-11.01-225.42-34.17-268.71-109.67-49.63-86.56,67.83-190.26,97.17-215.01-252.74,23.13-796.21,81.07-1358.48,193.28-137.75,27.49-315.69,66.03-422.93,148.05-18.48,14.13-163.99,128.66-59.33,207.87,157.58,119.26,794.26,91.86,1397.81,65.88,522.05-22.47,600.43-51.34,1289.88-85.1,359.93-17.63,567.06-27.77,861.43-27.75,462.96.03,822.9,25.18,1348.52,62.9,349.02,25.04,398.21,33.87,865.94,66.6,564.84,39.52,814.57,49.14,1095.95,9.25,174.66-24.76,396.14-56.16,438.79-123.54h0c86.7-136.97-617.28-340.83-1187.46-440.7h0Z"/><path class="cls-7" d="M5280.18,610.29c23.64,40.99,75.18,146.55,6.09,237.16-53.39,70.03-155.15,100.05-219.46,115.75-433.45,105.81-1365.38,98.1-1529.8,97.22-79.43-.42-960.21-4.48-1550.27-90.02-80.3-11.64-233.49-36.14-278.33-116-51.44-91.61,70.39-201.36,100.7-227.47,23.82-2.23,58.47-5.39,100.35-8.88,81.15-6.76,142.61-10.88,175-13.03,462.78-30.75,820.84-42.28,820.84-42.28,177.34-5.71,310.75-7.76,358.26-8.43,46.52-.65,156.36-2.02,312.68-1.79,399.9.59,752.93,11.1,768.74,11.58,264.91,8.06,579.74,21.93,935.21,46.18v.02h0Z"/></g><g id="Logo" class="cls-6"><path class="cls-8" d="M6933.42,905.27c43.12-2.21,213.57,130.47,77.68,211.8-112.59,51.03-325.98,49.89-513.59,48.88-245.44-1.32-471.14-29.54-466.11-42.96,8.17-21.83,614.26,32.3,828.65-65.17,136.22-61.93,38.85-150.78,73.37-152.55h0Z"/></g></svg>