<?xml version="1.0" encoding="UTF-8"?><svg id="Layer_1" xmlns="http://www.w3.org/2000/svg" width="7343.14" height="5457.34" viewBox="0 0 7343.14 5457.34"><defs><style>.cls-1{fill:#282627;}.cls-1,.cls-2{opacity:0;}.cls-3,.cls-2{fill:#241814;}</style></defs><g id="Hat"><path class="cls-2" d="M5355.22,1373.24c96.83,1187.16,193.66,2374.32,290.49,3561.47-149.32,107.18-371.58,247.63-656.22,358.73-163.51,63.82-436.84,152.8-1542.45,163.06-963.01,8.94-1235.52-54.11-1501.86-171.21-208.43-91.64-371.43-198.07-480.32-277.21,74.42-1209.37,148.83-2418.74,223.25-3628.11l3667.11-6.75v.02Z"/><path class="cls-1" d="M7335.85,1027.96c-42.65,117.84-264.13,172.75-438.79,216.04-281.38,69.75-531.11,52.93-1095.95-16.18-467.73-57.23-516.92-72.67-865.94-116.46-525.62-65.96-885.56-109.94-1348.52-109.99-294.37-.04-501.5,17.7-861.43,48.53-689.45,59.04-767.83,109.52-1289.88,148.82-603.55,45.43-1240.23,93.35-1397.81-115.21-104.66-138.52,40.85-338.8,59.33-363.51,107.24-143.42,285.18-210.82,422.93-258.89C1257.41,203.69,1962.67,109.6,2021.66,102.01c506.03-65.13,899.18-84.91,1023.79-90.58,222.71-10.14,884.44-34.22,1777.38,46.34,637.1,57.48,955.64,86.22,1325.56,199.53,570.18,174.64,1274.16,531.13,1187.46,770.67h0Z"/><path class="cls-3" d="M5229.47,95.55c22.82,67.77,72.58,242.29,5.88,392.09-51.55,115.78-149.79,165.4-211.88,191.36-418.48,174.93-1318.21,162.18-1476.95,160.73-76.69-.7-927.04-7.4-1496.71-148.83-77.53-19.25-225.42-59.75-268.71-191.78-49.66-151.45,67.96-332.9,97.22-376.07,23-3.69,56.45-8.91,96.88-14.68,78.35-11.18,137.68-17.98,168.95-21.54,446.79-50.84,792.48-69.9,792.48-69.9,171.21-9.44,300.01-12.83,345.88-13.93,44.91-1.08,150.96-3.34,301.88-2.96,386.08.97,726.92,18.35,742.18,19.14,255.76,13.33,559.71,36.26,902.9,76.34v.03Z"/></g></svg>