<?xml version="1.0" encoding="UTF-8"?><svg id="Layer_1" xmlns="http://www.w3.org/2000/svg" width="7343.14" height="5457.22" viewBox="0 0 7343.14 5457.22"><defs><style>.cls-1{fill:#e83e65;}.cls-2{fill:#e0072e;}.cls-3{fill:#241814;}.cls-4{fill:#3d3333;}.cls-5{fill:#2b2a2b;}.cls-6{fill:#282627;}</style></defs><g id="Hat"><path class="cls-3" d="M5355.22,1373.12c96.83,1187.16,193.66,2374.32,290.49,3561.47-149.32,107.18-371.58,247.63-656.22,358.73-163.51,63.82-436.84,152.8-1542.45,163.06-963.01,8.94-1235.52-54.11-1501.86-171.21-208.43-91.64-371.43-198.07-480.32-277.21,74.42-1209.37,148.83-2418.74,223.25-3628.11l3667.11-6.75v.02Z"/><path class="cls-4" d="M2179.75,1512.1c103.7,2637.36-70.94,3269.15-263.27,3318.77-59.33,15.31-134.92-21.03-182.62-67.97-218.07-214.57-37.54-831.69,53.29-1345.85,80.58-456.09,140.36-1112.92,34.2-1965.05,119.47,20.03,238.93,40.07,358.4,60.1h0Z"/><path class="cls-2" d="M4807.24,994.38c219.1,52.29,395.87,110.21,509.64,150.42,12.78,76.11,25.56,152.21,38.34,228.32-84.9,37.54-197.42,84.27-331.49,131.62-78.24,27.63-261.16,91.7-455.52,134.31-172.33,37.78-294.43,45.69-667.49,59.09-444.73,15.98-667.1,23.97-721.61,21.49-280.58-12.75-541.85-62.22-1064.38-161.17-180.8-34.24-329.93-64.76-431.38-86.01,10.28-103.14,20.55-206.27,30.83-309.41,273.57-84.34,502.96-136.41,664.4-168.66,442.13-88.31,1344.21-258.8,2428.68,0h-.02Z"/><path class="cls-1" d="M5122.26,1058.55c56.35,23.37,112.7,46.74,169.04,70.11,9.88,79.81,19.76,159.63,29.64,239.45-80.43,39.66-167.97,78.68-262.35,115.09-108.57,41.89-211.6,74.7-307.36,100.54-1.73-5.6-3.61-14-2.74-23.81,4.12-46.74,65.92-74.68,183.31-119.72,152.63-58.56,182.1-38.67,209.11-75.41,29.1-39.59,44.27-121.22-18.66-306.25h.01Z"/><path class="cls-6" d="M2961.53,15.46c27.42-1.45,53.63-2.75,78.47-3.9-20.15.93-46.49,2.19-78.47,3.9Z"/><path class="cls-6" d="M3607.54,0c69.13.29,136.62,1.09,200.82,2.21-70.8-1.31-137.83-2-200.82-2.21Z"/><path class="cls-6" d="M6148.39,257.18c-281.66-86.27-533.54-123.52-918.92-161.76h0c22.82,67.78,72.58,242.3,5.88,392.1-51.55,115.78-149.79,165.4-211.88,191.36-418.48,174.93-1318.21,162.18-1476.95,160.73-76.69-.7-927.04-7.4-1496.71-148.83-77.53-19.25-225.42-59.75-268.71-191.78-49.63-151.37,67.83-332.71,97.17-376-252.74,40.44-796.21,141.76-1358.48,337.99-137.75,48.07-315.69,115.47-422.93,258.89-18.48,24.71-163.99,224.99-59.33,363.51,157.58,208.56,794.26,160.64,1397.81,115.21,522.05-39.3,600.43-89.78,1289.88-148.82,359.93-30.83,567.06-48.57,861.43-48.53,462.96.05,822.9,44.03,1348.52,109.99,349.02,43.79,398.21,59.23,865.94,116.46,564.84,69.11,814.57,85.93,1095.95,16.18,174.66-43.29,396.14-98.2,438.79-216.04h0c86.7-239.53-617.28-596.02-1187.46-770.66Z"/><path class="cls-6" d="M2146.46,86.45c397.71-45.19,714.85-65.18,778.49-68.96-163.88,9.34-440.78,28.84-778.49,68.96Z"/></g><g id="Logo"><path class="cls-5" d="M6974.02,644.31c45.06-4.43,261.45,267.25,81.18,423.6-117.66,102.05-340.65,99.77-536.7,97.75-256.49-2.63-492.34-59.09-487.09-85.91,8.54-43.65,641.91,64.61,865.94-130.34,142.35-123.87,40.6-301.56,76.67-305.11h0Z"/></g></svg>