<?xml version="1.0" encoding="UTF-8"?><svg id="Layer_1" xmlns="http://www.w3.org/2000/svg" width="5356.8" height="1166.36" viewBox="0 0 5356.8 1166.36"><defs><style>.cls-1{fill:#241814;}</style></defs><g id="Hat"><path class="cls-1" d="M3460.45,95.55c22.82,67.77,72.58,242.29,5.88,392.09-51.55,115.78-149.79,165.4-211.88,191.36-418.48,174.93-1318.21,162.18-1476.95,160.73-76.69-.7-927.04-7.4-1496.71-148.83-77.53-19.25-225.42-59.75-268.71-191.78C-37.58,347.67,80.04,166.22,109.3,123.05c23-3.69,56.45-8.91,96.88-14.68,78.35-11.18,137.68-17.98,168.95-21.54C821.92,35.99,1167.61,16.93,1167.61,16.93c171.21-9.44,300.01-12.83,345.88-13.93,44.91-1.08,150.96-3.34,301.88-2.96,386.08.97,726.92,18.35,742.18,19.14,255.76,13.33,559.71,36.26,902.9,76.34v.03Z"/></g></svg>