<?xml version="1.0" encoding="UTF-8"?>
<svg id="Layer_1" xmlns="http://www.w3.org/2000/svg" version="1.1" viewBox="0 0 7343.1 5457.2">
  <!-- Generator: Adobe Illustrator 29.0.1, SVG Export Plug-In . SVG Version: 2.1.0 Build 192)  -->
  <defs>
    <style>
      .st0 {
        fill: #e83e65;
      }

      .st0, .st1, .st2, .st3, .st4 {
        fill-opacity: 0;
      }

      .st1 {
        fill: #282627;
      }

      .st2 {
        fill: #3d3333;
      }

      .st5, .st3 {
        fill: #241814;
      }

      .st6 {
        fill: #2b2a2b;
      }

      .st7 {
        opacity: 0;
      }

      .st4 {
        fill: #e0072e;
      }
    </style>
  </defs>
  <g id="Hat">
    <path class="st3" d="M5355.2,1373.1c96.8,1187.2,193.7,2374.3,290.5,3561.5-149.3,107.2-371.6,247.6-656.2,358.7-163.5,63.8-436.8,152.8-1542.4,163.1-963,8.9-1235.5-54.1-1501.9-171.2-208.4-91.6-371.4-198.1-480.3-277.2,74.4-1209.4,148.8-2418.7,223.2-3628.1l3667.1-6.8h0Z"/>
    <path class="st2" d="M2179.8,1512.1c103.7,2637.4-70.9,3269.2-263.3,3318.8-59.3,15.3-134.9-21-182.6-68-218.1-214.6-37.5-831.7,53.3-1345.9,80.6-456.1,140.4-1112.9,34.2-1965.1,119.5,20,238.9,40.1,358.4,60.1h0Z"/>
    <path class="st4" d="M4807.2,994.4c219.1,52.3,395.9,110.2,509.6,150.4,12.8,76.1,25.6,152.2,38.3,228.3-84.9,37.5-197.4,84.3-331.5,131.6-78.2,27.6-261.2,91.7-455.5,134.3-172.3,37.8-294.4,45.7-667.5,59.1-444.7,16-667.1,24-721.6,21.5-280.6-12.8-541.9-62.2-1064.4-161.2-180.8-34.2-329.9-64.8-431.4-86,10.3-103.1,20.6-206.3,30.8-309.4,273.6-84.3,503-136.4,664.4-168.7,546.4,24.3,1358.1,64.2,2428.7,0h.1Z"/>
    <path class="st0" d="M5122.3,1058.6c56.4,23.4,112.7,46.7,169,70.1,9.9,79.8,19.8,159.6,29.6,239.4-80.4,39.7-168,78.7-262.4,115.1-108.6,41.9-211.6,74.7-307.4,100.5-1.7-5.6-3.6-14-2.7-23.8,4.1-46.7,65.9-74.7,183.3-119.7,152.6-58.6,182.1-38.7,209.1-75.4,29.1-39.6,44.3-121.2-18.7-306.2h.2Z"/>
    <path class="st1" d="M2961.5,15.5c27.4-1.4,53.6-2.8,78.5-3.9-20.1.9-46.5,2.2-78.5,3.9Z"/>
    <path class="st1" d="M3607.5,0c69.1.3,136.6,1.1,200.8,2.2-70.8-1.3-137.8-2-200.8-2.2Z"/>
    <path class="st1" d="M6148.4,698.8c-281.7-49.3-533.5-70.6-918.9-92.5h0c22.8,38.8,72.6,138.6,5.9,224.2-51.5,66.2-149.8,94.6-211.9,109.4-418.5,100-1318.2,92.7-1476.9,91.9-76.7-.4-927-4.2-1496.7-85.1-77.5-11-225.4-34.2-268.7-109.7-49.6-86.6,67.8-190.3,97.2-215-252.7,23.1-796.2,81.1-1358.5,193.3-137.8,27.5-315.7,66-422.9,148-18.5,14.1-164,128.7-59.3,207.9,157.6,119.3,794.3,91.9,1397.8,65.9,522-22.5,600.4-51.3,1289.9-85.1,359.9-17.6,567.1-27.8,861.4-27.8,463,0,822.9,25.2,1348.5,62.9,349,25,398.2,33.9,865.9,66.6,564.8,39.5,814.6,49.1,1096,9.2,174.7-24.8,396.1-56.2,438.8-123.5h0c86.7-137-617.3-340.8-1187.5-440.7h-.1Z"/>
    <path class="st5" d="M5280.2,610.3c23.6,41,399.3,105.8,330.2,196.4,35.3,140.7-381.9,260.2-575.9,229.1-433.5,105.8-1333.1,25.5-1497.5,24.6-79.4-.4-1026.3,83.7-1616.4-1.8-80.3-11.6-505.8-64.3-455.8-251.9-51.4-91.6,313.9-153.6,344.2-179.8,23.8-2.2,58.5-5.4,100.3-8.9,81.2-6.8,142.6-10.9,175-13,462.8-30.8,820.8-42.3,820.8-42.3,177.3-5.7,310.8-7.8,358.3-8.4,46.5-.7,156.4-2,312.7-1.8,399.9.6,752.9,11.1,768.7,11.6,264.9,8.1,579.7,21.9,935.2,46.2h.2Z"/>
  </g>
  <g id="Logo" class="st7">
    <path class="st6" d="M6933.4,905.3c43.1-2.2,213.6,130.5,77.7,211.8-112.6,51-326,49.9-513.6,48.9-245.4-1.3-471.1-29.5-466.1-43,8.2-21.8,614.3,32.3,828.6-65.2,136.2-61.9,38.9-150.8,73.4-152.5h0Z"/>
  </g>
</svg>