<?xml version="1.0" encoding="UTF-8"?>
<svg id="Logo" xmlns="http://www.w3.org/2000/svg" viewBox="0 0 849.47 831.8">
  <defs>
    <style>
      .cls-1 {
        fill: #f7eb5c;
      }

      .cls-1, .cls-2, .cls-3, .cls-4, .cls-5, .cls-6, .cls-7 {
        stroke-width: 0px;
      }

      .cls-2 {
        fill: #241814;
      }

      .cls-3 {
        fill: #2b2a2b;
      }

      .cls-4 {
        fill: #e83e65;
      }

      .cls-5 {
        fill: #282627;
      }

      .cls-6 {
        fill: #e0072e;
      }

      .cls-7 {
        fill: #3d3333;
      }
    </style>
  </defs>
  <path class="cls-2" d="m619.51,260.48c11.2,152.6,22.4,305.21,33.6,457.81-17.27,13.78-42.98,31.83-75.91,46.11-18.92,8.2-50.54,19.64-178.43,20.96-111.4,1.15-142.93-6.96-173.74-22.01-24.11-11.78-42.97-25.46-55.57-35.63,8.61-155.46,17.22-310.92,25.83-466.37,141.41-.29,282.81-.58,424.22-.87Z"/>
  <path class="cls-7" d="m252.16,278.34c12,339.02-8.21,420.23-30.46,426.61-6.86,1.97-15.61-2.7-21.13-8.74-25.23-27.58-4.34-106.91,6.16-173,9.32-58.63,16.24-143.06,3.96-252.6,13.82,2.58,27.64,5.15,41.46,7.73Z"/>
  <path class="cls-6" d="m556.11,211.79c25.35,6.72,45.8,14.17,58.96,19.34,1.48,9.78,2.96,19.57,4.43,29.35-9.82,4.83-22.84,10.83-38.35,16.92-9.05,3.55-30.21,11.79-52.7,17.26-19.94,4.86-34.06,5.87-77.22,7.6-51.45,2.05-77.17,3.08-83.48,2.76-32.46-1.64-62.68-8-123.13-20.72-20.92-4.4-38.17-8.32-49.9-11.06,1.19-13.26,2.38-26.52,3.57-39.77,31.65-10.84,58.18-17.54,76.86-21.68,51.15-11.35,155.5-33.27,280.96,0Z"/>
  <path class="cls-4" d="m592.56,220.04c6.52,3,13.04,6.01,19.56,9.01,1.14,10.26,2.29,20.52,3.43,30.78-9.3,5.1-19.43,10.11-30.35,14.79-12.56,5.38-24.48,9.6-35.56,12.92-.2-.72-.42-1.8-.32-3.06.48-6.01,7.63-9.6,21.21-15.39,17.66-7.53,21.07-4.97,24.19-9.69,3.37-5.09,5.12-15.58-2.16-39.37Z"/>
  <path class="cls-5" d="m848.63,216.09c-4.93,15.15-30.56,22.21-50.76,27.77-32.55,8.97-61.44,6.8-126.78-2.08-54.11-7.36-59.8-9.34-100.17-14.97-60.81-8.48-102.44-14.13-156-14.14-34.05,0-58.01,2.28-99.65,6.24-79.76,7.59-88.82,14.08-149.22,19.13-69.82,5.84-143.47,12-161.7-14.81-12.11-17.81,4.73-43.55,6.86-46.73,12.41-18.44,32.99-27.1,48.93-33.28,85.33-33.09,166.92-45.18,173.74-46.16,58.54-8.37,104.02-10.92,118.43-11.64,25.76-1.3,102.31-4.4,205.61,5.96,73.7,7.39,110.55,11.08,153.34,25.65,65.96,22.45,147.4,68.27,137.37,99.07Z"/>
  <path class="cls-2" d="m604.96,96.24c2.64,8.71,8.4,31.15.68,50.4-5.96,14.88-17.33,21.26-24.51,24.6-48.41,22.49-152.49,20.85-170.86,20.66-8.87-.09-107.24-.95-173.14-19.13-8.97-2.47-26.08-7.68-31.09-24.65-5.74-19.47,7.86-42.79,11.25-48.34,2.66-.47,6.53-1.14,11.21-1.89,9.06-1.44,15.93-2.31,19.54-2.77,51.69-6.53,91.68-8.98,91.68-8.98,19.81-1.21,34.71-1.65,40.01-1.79,5.2-.14,17.46-.43,34.92-.38,44.66.12,84.09,2.36,85.86,2.46,29.59,1.71,64.75,4.66,104.45,9.81Z"/>
  <path class="cls-3" d="m806.77,166.79c5.21-.57,30.25,34.35,9.39,54.45-13.61,13.12-39.41,12.82-62.09,12.57-29.67-.34-56.95-7.6-56.35-11.04.99-5.61,74.26,8.31,100.17-16.75,16.47-15.92,4.7-38.76,8.87-39.22Z"/>
  <g>
    <path class="cls-1" d="m516.86,831.8c-15.98-12.51-31.97-25.02-47.95-37.53,12.53-11.86,25.06-23.71,37.59-35.57,3.45,24.36,6.91,48.73,10.36,73.09Z"/>
    <path class="cls-1" d="m478.22,761.28c15.94,11.55,31.89,23.09,47.83,34.64-13.62,11.07-27.23,22.13-40.85,33.2-2.33-22.61-4.66-45.22-6.98-67.84Z"/>
  </g>
  <g>
    <path class="cls-1" d="m150.68,680.5c-15.98-12.51-31.97-25.02-47.95-37.53,12.53-11.86,25.06-23.71,37.59-35.57,3.45,24.36,6.91,48.73,10.36,73.09Z"/>
    <path class="cls-1" d="m112.05,609.99c15.94,11.55,31.89,23.09,47.83,34.64-13.62,11.07-27.23,22.13-40.85,33.2-2.33-22.61-4.66-45.22-6.98-67.84Z"/>
  </g>
  <g>
    <path class="cls-1" d="m625.65,415.22c-15.98-12.51-31.97-25.02-47.95-37.53,12.53-11.86,25.06-23.71,37.59-35.57,3.45,24.36,6.91,48.73,10.36,73.09Z"/>
    <path class="cls-1" d="m587.01,344.71c15.94,11.55,31.89,23.09,47.83,34.64-13.62,11.07-27.23,22.13-40.85,33.2-2.33-22.61-4.66-45.22-6.98-67.84Z"/>
  </g>
  <g>
    <path class="cls-1" d="m179.26,191.99c-15.98-12.51-31.97-25.02-47.95-37.53,12.53-11.86,25.06-23.71,37.59-35.57,3.45,24.36,6.91,48.73,10.36,73.09Z"/>
    <path class="cls-1" d="m140.62,121.48c15.94,11.55,31.89,23.09,47.83,34.64-13.62,11.07-27.23,22.13-40.85,33.2-2.33-22.61-4.66-45.22-6.98-67.84Z"/>
  </g>
  <g>
    <path class="cls-1" d="m564.7,96.89c-15.98-12.51-31.97-25.02-47.95-37.53,12.53-11.86,25.06-23.71,37.59-35.57,3.45,24.36,6.91,48.73,10.36,73.09Z"/>
    <path class="cls-1" d="m526.06,26.37c15.94,11.55,31.89,23.09,47.83,34.64-13.62,11.07-27.23,22.13-40.85,33.2-2.33-22.61-4.66-45.22-6.98-67.84Z"/>
  </g>
  <g>
    <path class="cls-1" d="m312.5,341.62c-15.98-12.51-31.97-25.02-47.95-37.53,12.53-11.86,25.06-23.71,37.59-35.57,3.45,24.36,6.91,48.73,10.36,73.09Z"/>
    <path class="cls-1" d="m273.87,271.11c15.94,11.55,31.89,23.09,47.83,34.64-13.62,11.07-27.23,22.13-40.85,33.2-2.33-22.61-4.66-45.22-6.98-67.84Z"/>
  </g>
  <g>
    <path class="cls-1" d="m667.45,758.71c-15.98-12.51-31.97-25.02-47.95-37.53,12.53-11.86,25.06-23.71,37.59-35.57,3.45,24.36,6.91,48.73,10.36,73.09Z"/>
    <path class="cls-1" d="m628.82,688.19c15.94,11.55,31.89,23.09,47.83,34.64-13.62,11.07-27.23,22.13-40.85,33.2-2.33-22.61-4.66-45.22-6.98-67.84Z"/>
  </g>
  <g>
    <path class="cls-1" d="m293.24,73.09c-15.98-12.51-31.97-25.02-47.95-37.53,12.53-11.86,25.06-23.71,37.59-35.57,3.45,24.36,6.91,48.73,10.36,73.09Z"/>
    <path class="cls-1" d="m254.61,2.58c15.94,11.55,31.89,23.09,47.83,34.64-13.62,11.07-27.23,22.13-40.85,33.2-2.33-22.61-4.66-45.22-6.98-67.84Z"/>
  </g>
  <g>
    <path class="cls-1" d="m224.02,518.09c-15.98-12.51-31.97-25.02-47.95-37.53,12.53-11.86,25.06-23.71,37.59-35.57,3.45,24.36,6.91,48.73,10.36,73.09Z"/>
    <path class="cls-1" d="m185.38,447.57c15.94,11.55,31.89,23.09,47.83,34.64-13.62,11.07-27.23,22.13-40.85,33.2-2.33-22.61-4.66-45.22-6.98-67.84Z"/>
  </g>
  <g>
    <path class="cls-1" d="m724.6,290.34c-15.98-12.51-31.97-25.02-47.95-37.53,12.53-11.86,25.06-23.71,37.59-35.57,3.45,24.36,6.91,48.73,10.36,73.09Z"/>
    <path class="cls-1" d="m685.96,219.83c15.94,11.55,31.89,23.09,47.83,34.64-13.62,11.07-27.23,22.13-40.85,33.2-2.33-22.61-4.66-45.22-6.98-67.84Z"/>
  </g>
  <g>
    <path class="cls-1" d="m394.87,629.07c-15.98-12.51-31.97-25.02-47.95-37.53,12.53-11.86,25.06-23.71,37.59-35.57,3.45,24.36,6.91,48.73,10.36,73.09Z"/>
    <path class="cls-1" d="m356.24,558.55c15.94,11.55,31.89,23.09,47.83,34.64-13.62,11.07-27.23,22.13-40.85,33.2-2.33-22.61-4.66-45.22-6.98-67.84Z"/>
  </g>
</svg>