<?xml version="1.0" encoding="UTF-8"?>
<svg id="Silke" xmlns="http://www.w3.org/2000/svg" viewBox="0 0 369.36 1068.06">
  <defs>
    <style>
      .cls-1 {
        fill: #f3c8b8;
      }

      .cls-1, .cls-2, .cls-3, .cls-4, .cls-5, .cls-6, .cls-7, .cls-8, .cls-9, .cls-10, .cls-11, .cls-12, .cls-13, .cls-14, .cls-15, .cls-16 {
        stroke-width: 0px;
      }

      .cls-2 {
        fill: #79b93b;
      }

      .cls-3 {
        fill: #dbd045;
      }

      .cls-4 {
        fill: #385ba6;
      }

      .cls-5 {
        fill: #eee47b;
      }

      .cls-6 {
        fill: #2f4c9c;
      }

      .cls-7 {
        fill: #68b42e;
      }

      .cls-8 {
        fill: #d81516;
      }

      .cls-9 {
        fill: #5e9931;
      }

      .cls-10 {
        fill: #fbd6c4;
      }

      .cls-11 {
        fill: #b73137;
      }

      .cls-12 {
        fill: #eee647;
      }

      .cls-13 {
        fill: #dfa496;
      }

      .cls-14 {
        fill: #de3642;
      }

      .cls-15 {
        fill: #e5b8aa;
      }

      .cls-16 {
        fill: #efefef;
      }
    </style>
  </defs>
  <g id="Hånd">
    <path class="cls-1" d="m120.55,94.2c.26,1.36,2.45,12.75,6.36,12.94,3.12.15,6.2-6.87,7.34-11.71,1.39-5.97-.5-7.24.88-13.85,1.43-6.84,4.14-8.74,2.93-11.1-1.59-3.12-8.49-4.11-12.91-1.32-8.39,5.28-5.1,22.45-4.6,25.06Z"/>
    <path class="cls-1" d="m89.23,80.25c-.35-6.13.26-9.52,1.97-13.13,3.91-8.26,12.29-15.03,15.46-13.3,4.28,2.33-7.4,16.67-4.3,39.23,1.59,11.57,6.39,20.45,1.96,32.38-.77,2.07-2.42,6.5-4.5,6.46-3.96-.09-6.15-16.29-9.2-38.84-.73-5.38-1.19-9.48-1.38-12.79"/>
    <path class="cls-13" d="m133.01,65.36c1.37-2.45,7.35.15,20.87-.52,3.54-.18,5.17-.42,9.78-.52,5.31-.12,9.57.54,13.57,1.04,5.34.67,8.02,1,8.09,1.37.58,3.03-34.61,19.01-48.33,6.85-2.68-2.38-5.06-6.29-3.98-8.22Z"/>
    <path class="cls-10" d="m180.22,77.49c1.56-3.85.29-8.8-2.35-11.15-1.18-1.05-3.34-2.23-14.41-.59-12.26,1.82-13.78,3.88-22.83,4.43-5.91.37-6.72-.4-8.87.78-6.43,3.54-6.44,15.13-6.45,21.28-.02,17.09,5.98,21.56,2.79,32.32-1.2,4.05-4.88,12.97-9.91,13.18-9.59.41-21.48-30.98-20.97-59.57.21-12,.37-20.94,6.1-30.16,8.46-13.62,18.46-10.76,38.61-29.22,12.2-11.17,12.93-16.25,21.39-18.26,6.86-1.63,10.65.69,29.22,3.65,0,0,.26.04,20.87,2.61,55.17,6.87,105.83-1.91,133.04,22.43,23.09,20.65,30.43,66.15,14.09,82.96-24.09,24.78-102.46-9.91-151.3.26-10.52,2.19-21.22,3.62-31.57,6.52-9.28,2.61-17.13,3.87-32.84,6.39-5.22.84-8.56,1.29-11.51-.65-6.89-4.53-8.95-17.82-3.65-25.3,2.16-3.06,5-4.35,13.04-7.04,25.17-8.42,34.81-8.25,37.5-14.87Z"/>
    <path class="cls-15" d="m159.09,109.92c.37,4.47-.81,8.29-1.08,8.27-.19-.02.23-2.03-.34-5.18-.16-.9-.39-1.79-.39-3.18,0-1.09.14-1.85.2-2.25.48-3.42-1.49-6.77-1.42-6.8.08-.03,2.59,3.72,3.03,9.15Z"/>
    <path class="cls-15" d="m163.84,111.93c.4,2.43.16,4.96-.17,4.99-.48.05-1.35-4.97-1.69-7.24-.58-3.83-.95-8.45-.59-8.51.25-.04.82,1.99,1.11,3.51.27,1.39.17,1.71.41,3.24.34,2.17.66,2.39.93,4.01Z"/>
    <path class="cls-15" d="m130.53,59.69c.03-.97-.1-1.2,0-1.96.17-1.29.76-2.13.72-2.15-.04-.02-.58.89-1.3,2.35-.64,1.28-.96,1.93-1.01,2.15-.24,1.05.22,2.47,1.16,5.28.18.54.43,1.26.51,1.24.13-.03-.77-2.1-.39-4.63.11-.77.29-1.22.33-2.28Z"/>
    <path class="cls-15" d="m177.56,80.89c3.36-.97,7.45-2.19,12.12-3.65,8.57-2.68,11.43-3.8,11.48-5.35.04-1.16-1.55-2.21-2.74-2.61-2.35-.8-4.65.49-9.39,3.52-2.82,1.8-6.22,4.04-10.04,6.71-.48.46-.95.91-1.43,1.37Z"/>
    <path class="cls-15" d="m158.38,59.47c-1.89,3.14-3.02,5.99-3.7,7.98,1.37-.3,2.74-.6,4.1-.9,2.02-1.69,4.96-4.61,7.03-9.04,1.3-2.76,2.92-7.52,1.89-8.12-1.25-.73-6.19,4.85-9.33,10.07Z"/>
    <path class="cls-15" d="m175.72,58.06c-1.02,3.02-.42,5.79.02,7.22.26.05.58.14.94.29.32.14.59.3.8.44-.15-1.94-.12-4.71.85-7.78,1.33-4.2,3.61-6.41,3.27-6.7-.42-.35-4.41,2.2-5.87,6.52Z"/>
    <path class="cls-16" d="m119.77,127.32c1,3.75-1.09,8.47-3.33,8.77-2.29.31-4.59-4.02-7.24-9-1.96-3.68-2.94-5.53-2.26-6.35,1.52-1.86,11.18.41,12.83,6.58Z"/>
    <path class="cls-16" d="m142.85,121.97c-1.89,1.88-5.71,1.36-8.09.13-4.27-2.21-5.4-7.5-5.2-10.93.24-4.16,2.66-9.82,6.38-10.07,2.66-.18,5,2.48,6,4.17.59,1,.93,2.01,1.3,6.65.48,5.96.7,8.96-.39,10.04Z"/>
    <path class="cls-15" d="m239.37,110.78c.05-.39-7.96-2.88-17.6-1.85-7.55.81-13.69,3.51-13.62,3.75.04.14,2.28-.51,6.34-1.13,1.11-.17,4.66-.69,10.15-.92,9.45-.4,14.69.47,14.73.16Z"/>
    <path class="cls-15" d="m104.66,59.28c0,.09-1.64.62-3.23.26-.68-.15-1.05-.39-1.81-.34-.33.02-.72.1-.83-.08-.08-.13.02-.35.12-.52.61.18,1.53.42,2.67.56,1.85.22,3.08.05,3.08.13Z"/>
    <path class="cls-15" d="m104.51,60.35s-.68.1-1.26.13c-1.28.06-2.32-.04-2.73-.09-.25-.03-.76-.09-1.04-.12-.39-.05-.71-.08-.92-.11.03-.15.06-.3.09-.45.65.17,1.6.39,2.78.51,1.68.17,3.08.07,3.08.13Z"/>
    <path class="cls-16" d="m98.25,129.86c.09.49.1.9.1,1.18-.43-.63-.91-1.43-1.33-2.39-.39-.88-.65-1.7-.83-2.39.42.36.71.71.9.97.84,1.12,1.08,2.22,1.16,2.62Z"/>
  </g>
  <g id="Silke-2" data-name="Silke">
    <path class="cls-8" d="m185.25,292.71c-12.33,50.9-51.57,98.48-67.3,92.87-27.03-9.63,14.93-176.37,12-257.74-.16-4.44-.46-8.88,1.16-9.43,7.97-2.74,76.24,83.07,54.14,174.3Z"/>
    <path class="cls-12" d="m124.46,388.97c.74,44.16-6.52,66-6.52,66-39.64,119.18-59.46,178.77-81.52,177C17.52,630.46.79,590.02.03,556.84c-1.66-72.05,71.82-115.72,106.83-172.27,2.14-3.45,8.77-14.45,13.21-13.21,3.82,1.07,4.29,10.78,4.4,17.61Z"/>
    <path class="cls-7" d="m77.51,648.8c57.18,25.26,77.21,14.05,94.7,36,16.48,20.69,13.24,48.93,10.96,68.87-2.65,23.09-12.78,58.09-26.61,58.7-8.31.36-12.35-11.95-24.26-29.74-29.33-43.81-51.86-39.35-79.04-78.26-19.8-28.34-32.82-66.43-23.07-74.3,6.17-4.98,17.32,5.48,47.33,18.74Z"/>
    <path class="cls-6" d="m149.51,957.93c-31.37,70.87-91.01,115.74-99.39,109.57-5.84-4.31,18.38-29.65,17.22-73.57-1.02-38.44-19.69-41.77-20.35-74.35-1.39-68.92,81.94-112.9,88.04-116.02,13.12-6.7,17.54-6.53,20.74-5.28,23.83,9.25,22.77,94.07-6.26,159.65Z"/>
    <path class="cls-11" d="m133.66,379.85c0,3.28-3.65,5.96-6.53,7.1-7.73,3.05-18.93-1.36-20.44-7.1-.78-2.98,1.26-5.5,1.39-5.65,3.38-4.05,10.77-3.25,12.07-3.11,5.63.61,13.5,3.94,13.51,8.76Z"/>
    <path class="cls-3" d="m48.81,632.85c-.68,4.1-6.12,6.32-9.75,6.81-7.08.97-14.94-3.55-14.9-7.5.01-1.49,1.15-2.57,2.67-4.01,1.39-1.31,6.05-5.72,12.23-4.81,5.1.75,10.49,5.01,9.75,9.51Z"/>
    <path class="cls-9" d="m168.97,806.98c-.64,3.77-8.42,6.19-14.58,5.58-9.43-.94-18.06-9.33-16.71-13.55,1.17-3.64,9.81-4.33,15.63-3.28,7.75,1.4,16.39,6.95,15.65,11.25Z"/>
    <path class="cls-14" d="m183.42,260.1c-2.88,60.54-40.42,105.11-43.04,103.83-2.39-1.17,25.29-39.81,30.52-101.74,4.02-47.55-7.49-81.66-4.96-82.17,2.66-.54,19.57,36.15,17.48,80.09Z"/>
    <path class="cls-5" d="m5.77,544.19c-2.02,32.47,15.18,59.88,17.48,59.22,1.81-.52-6.54-19.67-4.43-47.22,1.7-22.3,9.35-38.39,16.96-54,11.28-23.15,19.08-29.26,47.28-71.68,8.12-12.21,14.56-22.36,18.72-29.01-27.76,27.72-48.03,53.42-62.09,73.04-29.8,41.62-33.2,58.16-33.91,69.65Z"/>
    <path class="cls-2" d="m157.33,679.32c14.57,11.05,18.89,28.36,20.93,36.59,5.53,22.18.38,42.86-1.37,42.85-1.17,0-.57-9.28-4.11-23.28-1.14-4.5-5.55-21.98-15.46-34.83-10.33-13.41-18.78-11.59-52.83-29.35-22.84-11.92-39.73-23.54-39.33-24.26.4-.72,16.93,11.44,43.04,19.37,27.73,8.42,35.79,2.81,49.11,12.91Z"/>
    <path class="cls-4" d="m100.46,860.62c-11.97,18.59-17.96,27.88-21.65,37.83-12.56,33.86-3.53,62.15-7.57,62.87-3.53.63-14-20.33-14.09-44.61-.11-30.33,16.04-52.44,23.48-62.35,19.65-26.16,47.04-41.82,49.83-38.87,1.97,2.09-9.15,12.77-30,45.13Z"/>
  </g>
</svg>