<?xml version="1.0" encoding="UTF-8"?>
<svg id="Kort" xmlns="http://www.w3.org/2000/svg" viewBox="0 0 316.14 260.23">
  <defs>
    <style>
      .cls-1 {
        fill: #f7f7f2;
      }

      .cls-1, .cls-2, .cls-3, .cls-4, .cls-5, .cls-6, .cls-7, .cls-8, .cls-9 {
        stroke-width: 0px;
      }

      .cls-10 {
        stroke: #39597e;
      }

      .cls-10, .cls-11, .cls-12, .cls-13, .cls-14 {
        stroke-miterlimit: 10;
      }

      .cls-10, .cls-11, .cls-13, .cls-14 {
        fill: none;
      }

      .cls-11 {
        stroke: #e8e8e8;
      }

      .cls-11, .cls-13 {
        stroke-width: .25px;
      }

      .cls-2 {
        fill: #4d69b0;
      }

      .cls-12 {
        stroke: #7b7b7b;
      }

      .cls-12, .cls-5 {
        fill: #fff;
      }

      .cls-4 {
        fill: #fafaf8;
      }

      .cls-6 {
        fill: #ededed;
      }

      .cls-7 {
        fill: #f9bb1f;
      }

      .cls-13 {
        stroke: #e5e5e1;
      }

      .cls-8 {
        fill: #e5251f;
      }

      .cls-9 {
        fill: #f5c700;
      }

      .cls-14 {
        stroke: #e5251f;
      }
    </style>
  </defs>
  <g id="Løse_kort" data-name="Løse kort">
    <g>
      <g>
        <path class="cls-12" d="m119.76,6.71c2.15-.83,4.65-1.3,6.78-.24,1.53.76,2.33,2.06,2.64,2.56,3.27,5.43,86.19,158.92,90.82,167.49.4.59,1.27,2.07,1.18,4.06-.18,3.72-3.61,5.67-3.84,5.8-41.6,21.45-83.19,42.91-124.79,64.36-.46.36-1.13.76-1.99.88-1.83.26-3.77-.82-5-2.72C57.43,192.73,29.31,136.55,1.2,80.37c-.3-.7-1.07-2.78-.48-5.35.67-2.91,2.64-4.52,3.21-4.95C42.54,48.95,81.15,27.83,119.76,6.71Z"/>
        <path class="cls-8" d="m34.51,77.75c-2.54,1.29-2.74,8.39.47,12.68.92,1.23,2.12,2.22,7.79,4.74,1.91.85,3.39,1.38,4.54,1.74,2.49.78,2.86.76,3.92,1.36,2.48,1.41,3.53,3.55,3.85,3.36.29-.18-.9-1.82-1.12-4.24-.15-1.68.26-2.62.87-4.95.24-.93,1.1-4.25,1.25-6.46.24-3.49-1.07-7.52-3.63-10.47-2.75-3.16-7.71-5.62-9.49-4.15-1.82,1.49.6,6.32-1.35,7.69-1.84,1.3-4.9-2.41-7.1-1.29Z"/>
        <path class="cls-8" d="m21.31,97.53c-1.68.64-2.52,4.6-1,7.09.43.71,1.06,1.3,4.25,2.89,2.46,1.22,4.57,2.1,6.07,2.68,3.19-5.05,4.07-10.26,1.81-13.37-1.35-1.85-4.11-3.37-5.35-2.61-1.26.78-.28,3.55-1.6,4.25-1.25.67-2.73-1.49-4.18-.94Z"/>
        <path class="cls-8" d="m21.13,76.09c1.95,4.03,3.91,8.07,5.86,12.1.53,1.88-.1,3.87-1.57,4.99-1.72,1.31-4.28,1.18-6-.4-1.96-4.15-3.91-8.3-5.87-12.46,0-.12.13-2.95,2.63-4.31,2.44-1.33,4.82,0,4.95.07Z"/>
        <path class="cls-8" d="m18.82,96.47l-1.26,1.16-7.85-15.79c-.41.37-.82.75-1.23,1.12.16-.88.32-1.76.48-2.63.34-.25.67-.51,1.01-.76,2.95,5.64,5.9,11.27,8.85,16.91Z"/>
        <path class="cls-5" d="m20.06,78.56c1.6,3.19,3.2,6.38,4.79,9.57.84,1.72.36,3.56-.88,4.08-1.03.43-2.45-.13-3.34-1.4-1.61-3.28-3.22-6.56-4.84-9.83-.33-1.36.13-2.65,1.13-3.17.95-.49,2.2-.19,3.13.76Z"/>
      </g>
      <path class="cls-14" d="m25.18,87.74c.78,1.62.09,3.48-1.3,4.12-1.12.51-2.56.18-3.47-.87-1.67-3.51-3.34-7.02-5-10.53.07-.32.32-1.28,1.21-1.97,1.54-1.2,3.49-.41,3.57-.38,1.67,3.21,3.33,6.42,5,9.64Z"/>
    </g>
    <g>
      <path class="cls-12" d="m280.18,41.49c2.11.93,4.22,2.35,4.98,4.6.55,1.62.21,3.1.07,3.68-1.5,6.16-50.69,173.54-53.44,182.88-.13.7-.56,2.37-2.02,3.71-2.75,2.51-6.55,1.49-6.82,1.41-44.64-14.05-89.29-28.11-133.93-42.16-.58-.07-1.34-.26-2.03-.78-1.48-1.1-2.1-3.24-1.64-5.45,19.59-59.69,39.18-119.37,58.77-179.06.28-.71,1.19-2.73,3.43-4.14,2.53-1.59,5.06-1.35,5.77-1.25,42.29,12.19,84.57,24.38,126.86,36.56Z"/>
      <path class="cls-10" d="m212.63,211.01c-32.54-14.42-65.08-28.85-97.62-43.27,15.95-45.87,31.9-91.75,47.86-137.62,32.93,9.42,65.86,18.85,98.79,28.27-16.34,50.88-32.68,101.75-49.03,152.63Z"/>
      <path class="cls-8" d="m170.84,35.22c-2.51-1.35-8.45,2.55-10.13,7.64-.48,1.46-.61,3.01.57,9.1.4,2.05.81,3.56,1.17,4.72.79,2.49,1.02,2.78,1.13,4,.26,2.84-.9,4.92-.55,5.07.32.14.97-1.78,2.84-3.34,1.29-1.08,2.3-1.28,4.56-2.12.9-.34,4.12-1.53,6.01-2.67,3-1.8,5.55-5.18,6.51-8.97,1.02-4.06.2-9.53-2.02-10.16-2.27-.64-4.84,4.11-7.08,3.3-2.12-.77-.83-5.39-3-6.56Z"/>
      <path class="cls-8" d="m145.19,35.96c-1.73-.47-4.74,2.24-4.98,5.15-.07.83.09,1.68,1.74,4.83,1.27,2.44,2.46,4.39,3.33,5.74,5.55-2.2,9.33-5.9,9.33-9.75,0-2.29-1.34-5.14-2.79-5.25-1.48-.11-2.31,2.7-3.8,2.5-1.41-.2-1.33-2.81-2.83-3.22Z"/>
      <path class="cls-8" d="m150.03,28.88c.98-.84,1.97-1.69,2.95-2.53.48,2.68.97,5.36,1.45,8.03-.69-.25-1.39-.49-2.08-.74-.05.52-.11,1.04-.16,1.55,1.59.41,3.18.83,4.77,1.24.09-.45.18-.9.26-1.34-.33-.13-.67-.26-1-.4-.38-3.31-.75-6.62-1.13-9.93,1.98-1.56,3.97-3.13,5.95-4.69.49,0,.98-.02,1.47-.03.11-.34.23-.68.34-1.03-1.74-.63-3.48-1.26-5.21-1.9-.14.5-.28,1-.42,1.5.4.38.79.75,1.19,1.13-2.28,1.62-4.57,3.25-6.85,4.87.65-2.24,1.3-4.48,1.95-6.72.47-.03.93-.05,1.4-.08l.29-1.11c-1.57-.46-3.14-.91-4.71-1.37,0,.5-.02,1-.03,1.5.45.19.9.39,1.34.58-1.62,4.83-3.23,9.66-4.85,14.49-.54-.11-1.08-.22-1.63-.33l-.22,1.41c1.53.53,3.06,1.05,4.58,1.58.2-.54.4-1.09.61-1.63-.43-.15-.86-.3-1.29-.45.34-1.21.68-2.42,1.03-3.63Z"/>
    </g>
    <g>
      <path class="cls-12" d="m173.53.64c2.28-.31,4.82-.19,6.65,1.33,1.32,1.1,1.8,2.54,1.98,3.1,1.93,6.03,47.26,174.5,49.79,183.91.25.66.76,2.31.21,4.22-1.03,3.58-4.81,4.69-5.08,4.76-45.42,11.29-90.84,22.59-136.26,33.88-.53.24-1.28.47-2.14.4-1.84-.17-3.48-1.67-4.24-3.8-14.42-61.14-28.83-122.29-43.25-183.43-.13-.75-.4-2.95.77-5.32,1.33-2.68,3.61-3.79,4.27-4.08C88.66,23.95,131.1,12.3,173.53.64Z"/>
      <path class="cls-10" d="m206.03,182.91c-34.34,7.8-68.69,15.59-103.03,23.39-12.01-51.89-24.02-103.77-36.03-155.66,34.13-6.27,68.27-12.54,102.4-18.81,12.22,50.36,24.44,100.71,36.66,151.07Z"/>
      <path class="cls-8" d="m75.81,52.99c-2.8.56-4.89,7.35-2.93,12.34.56,1.43,1.45,2.7,6.24,6.65,1.61,1.33,2.89,2.23,3.91,2.89,2.19,1.42,2.55,1.49,3.42,2.36,2.01,2.02,2.45,4.37,2.81,4.26.33-.1-.38-1.99.05-4.39.3-1.66.96-2.46,2.16-4.54.48-.83,2.19-3.8,2.93-5.89,1.17-3.3.98-7.53-.7-11.06-1.8-3.78-5.93-7.47-8.04-6.54-2.16.95-1.11,6.25-3.35,7.05-2.12.76-4.08-3.63-6.5-3.14Z"/>
      <path class="cls-8" d="m56.7,64.74c-1.78.26-3.47,3.93-2.53,6.7.27.79.75,1.5,3.51,3.75,2.14,1.73,4,3.05,5.34,3.95,4.22-4.23,6.22-9.12,4.7-12.65-.91-2.1-3.27-4.19-4.64-3.72-1.4.48-1.05,3.4-2.49,3.8-1.37.38-2.34-2.06-3.88-1.83Z"/>
      <path class="cls-8" d="m62.28,43.71c-.4.52-1.25.04-1.74.4-1.04.75.95,4.33,1.81,9.17.54,3.04.86,4.88-.2,6.5-1.44,2.19-5.21,3.63-7.82,1.92-2.06-1.35-2.3-3.95-2.33-4.36.57-.14,1.13-.29,1.7-.43.16,1.87,1.65,3.34,3.45,3.48,2.14.16,3.68-1.64,3.96-3.08.11-.56,0-.96-.24-1.93-.71-2.72-1.07-4.09-1.4-5.06-.44-1.3-1-3.17-1.5-5.53-.68,0-1.36-.02-2.05-.02-.07-.52-.15-1.04-.22-1.56,2.16-.35,4.32-.7,6.48-1.05.24.56.39,1.18.11,1.55Z"/>
    </g>
    <g>
      <g>
        <path class="cls-12" d="m227.7,10.88c2.29.26,4.72,1,6.12,2.93,1.01,1.39,1.12,2.9,1.15,3.49.38,6.32,2.79,180.77,2.92,190.5.08.7.17,2.43-.84,4.14-1.88,3.21-5.82,3.36-6.09,3.36-46.8-.25-93.6-.5-140.41-.75-.58.11-1.35.15-2.17-.14-1.74-.62-2.96-2.47-3.17-4.73,1.1-62.81,2.2-125.62,3.3-188.43.06-.76.33-2.96,2.06-4.96,1.94-2.27,4.44-2.78,5.14-2.9,44-.84,88-1.67,132-2.51Z"/>
        <path class="cls-10" d="m214.88,193.02c-36.24.42-72.48.84-108.72,1.26,2.69-53.73,5.37-107.46,8.06-161.19,32.92,1.26,65.84,2.53,98.77,3.79.63,52.04,1.26,104.09,1.9,156.13Z"/>
        <path class="cls-8" d="m123.17,37.7c-2.82-.45-7.15,5.18-7.06,10.54.02,1.54.41,3.04,3.52,8.41,1.05,1.81,1.93,3.1,2.66,4.07,1.56,2.09,1.87,2.29,2.38,3.41,1.18,2.6.77,4.95,1.14,4.97.35.03.34-2,1.58-4.09.86-1.45,1.75-1.97,3.61-3.5.74-.61,3.39-2.8,4.81-4.49,2.25-2.68,3.55-6.71,3.21-10.61-.37-4.18-2.94-9.07-5.25-8.94-2.35.14-3.22,5.47-5.61,5.44-2.26-.03-2.55-4.82-4.99-5.22Z"/>
        <path class="cls-8" d="m99.7,44.63c-1.79-.06-4.11,3.26-3.68,6.14.12.83.47,1.61,2.79,4.31,1.79,2.08,3.39,3.71,4.55,4.84,4.91-3.41,7.74-7.87,6.87-11.61-.52-2.23-2.48-4.71-3.91-4.48-1.46.23-1.64,3.16-3.13,3.29-1.41.13-1.93-2.44-3.49-2.49Z"/>
        <path class="cls-8" d="m109.16,25.51l-.63,13.43c-.43,1.91-1.94,3.35-3.77,3.63-2.14.33-4.33-1-5.08-3.21.26-4.58.53-9.17.79-13.75.06-.1,1.52-2.53,4.37-2.53,2.78,0,4.24,2.29,4.32,2.42Z"/>
        <path class="cls-5" d="m107.16,37.68c-.09,1.8-1.58,3.1-3.11,3-1.22-.08-2.33-1.06-2.63-2.42.21-3.88.42-7.76.63-11.64.22-.25.89-.98,2-1.16,1.92-.32,3.26,1.3,3.32,1.37-.07,3.62-.14,7.23-.21,10.85Z"/>
        <path class="cls-8" d="m110.42,40.42v2.27c-.36.1-.97.22-1.69.11-2.94-.49-2.95-4.33-6.22-5.74-2.01-.87-3.82-.19-4.49-1.44-.31-.57-.21-1.23-.09-1.67,1.38,0,3.49.2,5.58,1.37.9.5,1.89,1.05,2.79,2.16.79.97.99,1.73,1.93,2.33.78.51,1.62.61,2.18.62Z"/>
      </g>
      <g>
        <path class="cls-13" d="m152.81,71.93c1.09,1.5,2.27,3.34,3.36,5.52,1.41,2.83,2.29,5.46,2.85,7.64"/>
        <path class="cls-13" d="m154,72.25c.97,1.2,2.05,2.75,3.03,4.67,1.34,2.62,2.03,5.04,2.4,6.9"/>
        <path class="cls-13" d="m155.43,72.82c.79.82,1.84,2.1,2.69,3.9,1.01,2.13,1.29,4.06,1.37,5.29"/>
        <path class="cls-13" d="m156.87,73.69c.58.46,1.88,1.63,2.52,3.6.38,1.19.38,2.23.33,2.9"/>
        <path class="cls-6" d="m155.67,87.45c-.85,1.02-3.01,2.71-5.12,1.61-1.86-.97-2.58-3.26-1.61-5.12,1.31-2.51,4.91-1.67,5.12-1.61.53.13,2.1.52,2.58,1.84.54,1.47-.7,2.96-.97,3.29Z"/>
        <path class="cls-9" d="m156.4,162.98l-41.4-5.17c.63-10.68,1.25-21.36,1.88-32.04,1.06-6.89,3.68-11.73,5.41-14.4,1.07-1.66,8.4-12.6,21.87-15.31,3.89-.78,7.52-1.52,11,.31,5.72,3.01,8.43,11.58,6.85,21.67-1.87,14.98-3.75,29.96-5.62,44.95Z"/>
        <path class="cls-2" d="m131.51,121.76c-.42.83-.85,1.66-1.27,2.5-2.57-4.41-5.14-8.83-7.71-13.24.27-.39.55-.77.82-1.16,2.72,3.97,5.44,7.93,8.16,11.9Z"/>
        <path class="cls-2" d="m134.29,118.68c-.42.83-.85,1.66-1.27,2.5-2.69-4.45-5.38-8.9-8.07-13.35.29-.33.58-.66.87-.99,2.82,3.95,5.64,7.89,8.47,11.84Z"/>
        <path class="cls-2" d="m129.92,125.3c-.42.83-.85,1.66-1.27,2.5-2.7-4.47-5.41-8.93-8.11-13.4.15-.28.31-.56.46-.83,2.97,3.91,5.95,7.82,8.92,11.74Z"/>
        <path class="cls-4" d="m152.62,73.2c2.17,4.34,4.34,8.68,6.52,13.02.02.85.12,10.94-7.33,15.66-.93.59-6.31,4-11.38,1.67-3.05-1.4-4.39-4.14-4.6-4.59-2.05-4.35-.09-9.06,2.29-14.79,1-2.41,2.6-5.74,5.16-9.43,3.12-.51,6.24-1.02,9.36-1.54Z"/>
        <path class="cls-1" d="m152.32,73.88c-1.47-.79-3.15.66-6.64,1.36-1.69.34-3.13.37-4.11.34,1.28-2.3,2.56-4.61,3.84-6.91.48-.02,10.41-.23,14.03,6.48,2.55,4.74.87,10.92-.31,11.07-1.15.15-3.99-5.23-5.35-9.8-.29-1-.55-2.05-1.46-2.55Z"/>
        <path class="cls-13" d="m144.68,70.57c.3-.31,1.06-1,2.27-1.31,1.35-.34,2.44,0,2.85.16"/>
        <path class="cls-13" d="m144.41,72.3c.68-.56,1.83-1.37,3.46-1.91,1.5-.49,2.81-.55,3.66-.52"/>
        <path class="cls-13" d="m143.85,73.38c.73-.57,2.24-1.59,4.42-2.03,2.16-.43,3.92-.09,4.82.15"/>
        <path class="cls-13" d="m143.07,74.94c1.69-.87,3.85-1.76,6.44-2.37,1.19-.28,2.31-.46,3.34-.58"/>
        <path class="cls-11" d="m145.78,87.9c-.99.95-1.92,1.52-2.63,1.88-.85.43-1.5.6-1.55,1.02-.07.5.75,1.02,1.53,1.42"/>
        <path class="cls-6" d="m147.01,83.05c-.5,1.32-2.83,2.18-4.57,1.44-.14-.06-1.52-.67-1.87-2.03-.2-.79.03-1.44.43-2.54.46-1.26.68-1.92,1.18-2.09,1.71-.61,5.66,3.03,4.83,5.23Z"/>
        <path class="cls-7" d="m168.2,75.54c.14,4.83-6.82,8.46-9.22,7.17-1.54-.83-.54-3.35-2.87-6-1.25-1.42-1.86-1.29-4.3-3.22-1.03-.81-5.42-4.29-4.86-5.65.32-.79,2.47-1.27,11.46.72,5.5-.49,9.69,3.32,9.79,6.98Z"/>
        <path class="cls-8" d="m156.89,77.42c-.18.11-.86-.66-1.43-1.37-.83-.57-1.65-1.13-2.48-1.7-1-.69-2.11-1.55-3.24-2.6-.86-.8-1.6-1.59-2.24-2.33-.17-.26-.38-.65-.55-1.14-.15-.41-.42-1.2-.24-1.3.2-.13.92.73,2.42,2.45,1.28,1.46,1.92,2.19,2.12,2.38,2.4,2.34,4.92,3.06,5.56,4.94.05.14.21.6.08.68Z"/>
        <path class="cls-3" d="m156.09,76.67c-.18-.02-.8-.6-1.31-1.11-.77-.55-1.53-1.1-2.3-1.65-.93-.67-1.95-1.45-2.99-2.31-.79-.66-1.47-1.27-2.04-1.81-.15-.17-.34-.41-.48-.68-.12-.22-.35-.65-.18-.62.2.03.85.65,2.21,1.93,1.16,1.09,1.74,1.63,1.92,1.79,2.19,1.88,4.58,3.15,5.11,4.16.04.07.17.32.05.31Z"/>
      </g>
    </g>
    <g>
      <path class="cls-12" d="m311.94,82.64c1.82,1.42,3.5,3.32,3.69,5.69.13,1.71-.56,3.06-.84,3.58-2.98,5.59-92.02,155.62-96.99,163.99-.3.64-1.13,2.16-2.88,3.1-3.28,1.76-6.72-.18-6.95-.32-39.78-24.65-79.57-49.31-119.35-73.96-.55-.21-1.23-.58-1.78-1.26-1.17-1.44-1.23-3.65-.24-5.69,33.74-52.99,67.48-105.98,101.22-158.97.45-.62,1.83-2.35,4.35-3.16,2.84-.92,5.24-.05,5.9.21,37.96,22.26,75.92,44.53,113.88,66.79Z"/>
      <path class="cls-8" d="m185.43,43.33c-1.29-1.25-5.23-.33-6.85,2.11-.46.7-.73,1.51-.81,5.07-.06,2.75.04,5.03.15,6.64,5.93.75,11.02-.68,12.87-4.04,1.1-2.01,1.3-5.16.09-5.95-1.24-.81-3.33,1.26-4.53.36-1.14-.85.19-3.11-.93-4.19Z"/>
      <path class="cls-8" d="m210.06,96.75c-5.01-3.62-18.62,2.58-23.46,12.64-1.39,2.88-2.04,6.05-1.05,19.12.33,4.39.84,7.67,1.33,10.2,1.06,5.43,1.47,6.11,1.41,8.68-.14,5.99-3.13,9.96-2.43,10.38.64.39,2.52-3.38,6.87-6.04,3.01-1.84,5.22-1.93,10.23-2.95,2.01-.41,9.14-1.86,13.47-3.62,6.84-2.77,13.11-8.98,16.08-16.56,3.19-8.12,2.78-19.77-1.79-21.79-4.67-2.06-11.32,6.99-15.89,4.58-4.33-2.28-.43-11.49-4.77-14.62Z"/>
      <g>
        <path class="cls-8" d="m193.53,43.78c1.15-4.81,2.3-9.62,3.45-14.44-.39-.3-.78-.59-1.17-.89-1.73,1.37-3.53,2.9-5.36,4.61-2.27,2.11-4.28,4.2-6.04,6.18-.57-.23-1.13-.47-1.7-.7-.29.36-.57.73-.86,1.09l4.26,2.63c.31-.5.62-1,.93-1.5-.38-.18-.77-.36-1.15-.54.97-.97,1.94-1.94,2.91-2.91,1.24.68,2.49,1.37,3.73,2.05l-1.49,3.28c-.66-.24-1.33-.47-1.99-.71-.15.4-.3.8-.45,1.2,1.83.95,3.65,1.9,5.48,2.85.27-.37.55-.74.82-1.12-.46-.37-.91-.74-1.37-1.11Z"/>
        <path class="cls-5" d="m192.93,33.87c-.39,1.03-.77,2.06-1.16,3.09l-1.51-.91c.89-.72,1.78-1.45,2.67-2.17Z"/>
      </g>
      <path class="cls-8" d="m220.49,228.56c1.3,1.24,5.23.3,6.84-2.14.46-.7.72-1.52.78-5.08.05-2.75-.07-5.03-.18-6.64-5.93-.72-11.02.72-12.85,4.1-1.09,2.01-1.28,5.16-.06,5.95,1.24.8,3.32-1.27,4.53-.38,1.14.84-.18,3.11.95,4.18Z"/>
      <g>
        <path class="cls-8" d="m212.38,228.14c-1.13,4.82-2.26,9.63-3.39,14.45.39.3.78.59,1.17.89,1.72-1.38,3.52-2.91,5.34-4.63,2.27-2.12,4.26-4.22,6.01-6.21.57.23,1.13.46,1.7.69.29-.37.57-.73.86-1.1-1.42-.87-2.85-1.74-4.27-2.61-.31.5-.62,1-.93,1.5.38.18.77.36,1.15.54-.96.97-1.93,1.95-2.89,2.92l-3.74-2.03,1.48-3.29c.66.23,1.33.47,1.99.7.15-.4.3-.8.44-1.21-1.83-.94-3.66-1.88-5.49-2.82-.27.37-.54.75-.81,1.12.46.37.92.73,1.37,1.1Z"/>
        <path class="cls-5" d="m213.03,238.05c.38-1.03.76-2.06,1.14-3.09l1.51.91c-.89.73-1.77,1.46-2.66,2.19Z"/>
      </g>
    </g>
  </g>
</svg>