<?xml version="1.0" encoding="UTF-8"?>
<svg xmlns="http://www.w3.org/2000/svg" viewBox="0 0 2233.65 2149.21">
  <defs>
    <style>
      .cls-1 {
        fill: #efefea;
      }

      .cls-1, .cls-2, .cls-3, .cls-4, .cls-5 {
        stroke-width: 0px;
      }

      .cls-2 {
        fill: #e0e0e0;
      }

      .cls-3 {
        fill: #f9ee80;
        opacity: .6;
      }

      .cls-4 {
        fill: #232322;
      }

      .cls-5 {
        fill: #e2e2dc;
      }
    </style>
  </defs>
  <g id="Stav">
    <g>
      <path class="cls-4" d="m225.55,116.72c504.23,451.6,1008.45,903.19,1512.68,1354.79-31.42,42.22-62.84,84.43-94.26,126.65C1141.27,1144.81,638.57,691.45,135.87,238.1c29.9-40.46,59.79-80.92,89.69-121.38Z"/>
      <path class="cls-5" d="m220.48,112.07c1.69,1.55,3.38,3.11,5.07,4.66-29.9,40.46-59.79,80.92-89.69,121.38-1.01-.84-2.02-1.68-3.03-2.52,29.21-41.17,58.43-82.34,87.64-123.51Z"/>
      <path class="cls-1" d="m220.48,112.07c-29.21,41.17-58.43,82.34-87.64,123.51C88.56,193.19,44.28,150.8,0,108.41,30.2,72.27,60.4,36.14,90.6,0c43.29,37.36,86.59,74.71,129.88,112.07Z"/>
      <path class="cls-2" d="m90.6,0C60.4,36.14,30.2,72.27,0,108.41c1.61-11.82,9.71-61.63,52.52-91.3C66.09,7.71,79.67,2.73,90.6,0Z"/>
      <path class="cls-5" d="m1651.3,1603.6c-2.45-1.78-4.9-3.56-7.35-5.34,31.36-42.42,62.72-84.83,94.08-127.25,3.21,2.58,6.41,5.15,9.62,7.73-32.12,41.62-64.24,83.24-96.35,124.86Z"/>
      <path class="cls-1" d="m1651.3,1603.6c32.12-41.62,64.24-83.24,96.35-124.86,76.14,68.07,152.27,136.14,228.41,204.2-34.08,39.13-68.16,78.26-102.23,117.39-74.18-65.58-148.35-131.16-222.53-196.73Z"/>
    </g>
  </g>
  <g id="Stav_klik" data-name="Stav klik">
    <path class="cls-3" d="m2070.35,1424.43c6.74-50.91,10.33-123.8-8.07-207.88-21.46-98.05-57.83-142.79-34.18-185.76,16.88-30.67,65.23-62.06,205.55-62.29-126.98,243.19-113.77,387.82-73.83,476.48,19.81,43.96,70.17,127.4,35.22,206.53-18.7,42.35-55.56,69.24-84.15,85.46-21.43-31.58-60.44-99.15-61.69-190.69-.69-50.81,10.47-92.8,21.16-121.86Z"/>
    <path class="cls-3" d="m1557.68,1837.8c89.45,6.9,98.74,127.03,199.13,143.76,99.17,16.53,189.5-84.14,192.56-80.39,3.74,4.58-123.7,164.28-294.14,165.06-105.99.48-151.77-60.85-242.42-39.79-72.6,16.86-120.85,74.23-151.14,122.77,15.73-46.79,47.57-120.56,114.38-193.14,54.42-59.13,113.68-123.5,181.64-118.26Z"/>
    <path class="cls-3" d="m1922.19,1523.59c12,24.73-4.06,56.84-12.98,56.73-4.12-.05-8.46-12.66-16.98-37.87-9.42-27.89-14.05-41.9-9.81-44.8,6.74-4.62,30.67,7.18,39.77,25.95Z"/>
    <path class="cls-3" d="m1767.12,1809.29c14.26,8.56,25.13,13.09,24.22,15.38-1.03,2.59-14.87-3.15-35.43.2-11.71,1.91-13.87,4.85-18.75,3.27-15.05-4.87-18.85-40.78-9.81-44.8,5.53-2.46,11.46,8.96,39.77,25.95Z"/>
    <path class="cls-3" d="m2187.42,1846.79c2.56,23.07-44.98,43.15-46.89,41.05-1.04-1.14,12.63-7.68,16.93-22.2,6.53-22.01-15.03-40.21-9.81-44.8,5.48-4.83,37.75,7.78,39.77,25.95Z"/>
    <path class="cls-3" d="m2125.51,1984.92c-2.79,11.09-14.12,21.22-22.19,20.15-10.37-1.37-18.08-21.61-16.98-37.87.66-9.64,4.04-12.48,2.82-21.44-2.02-14.83-13.41-22.71-12.63-23.37,1.66-1.4,56.46,32.73,48.98,62.52Z"/>
  </g>
</svg>