<?xml version="1.0" encoding="UTF-8"?>
<svg id="Stav" xmlns="http://www.w3.org/2000/svg" viewBox="0 0 1759.52 2011.19">
  <defs>
    <style>
      .cls-1 {
        fill: #efefea;
      }

      .cls-1, .cls-2, .cls-3, .cls-4 {
        stroke-width: 0px;
      }

      .cls-2 {
        fill: #e0e0e0;
      }

      .cls-3 {
        fill: #232322;
      }

      .cls-4 {
        fill: #e2e2dc;
      }
    </style>
  </defs>
  <path class="cls-3" d="m113.64,1785.51C553.71,1271.19,993.78,756.87,1433.85,242.55c42.92,30.46,85.83,60.91,128.75,91.37C1120.74,846.76,678.88,1359.59,237.01,1872.42c-41.12-28.97-82.25-57.94-123.37-86.92Z"/>
  <path class="cls-4" d="m109.1,1790.68c1.51-1.72,3.03-3.45,4.54-5.17,41.12,28.97,82.25,57.94,123.37,86.92-.82,1.03-1.64,2.06-2.46,3.08-41.82-28.28-83.64-56.55-125.46-84.83Z"/>
  <path class="cls-1" d="m109.1,1790.68c41.82,28.28,83.64,56.55,125.46,84.83l-124.13,135.68c-36.81-29.38-73.62-58.75-110.43-88.13,36.37-44.13,72.73-88.25,109.1-132.38Z"/>
  <path class="cls-2" d="m0,1923.06c36.81,29.38,73.62,58.75,110.43,88.13-11.86-1.34-61.83-8.31-92.46-50.44-9.71-13.36-14.99-26.82-17.97-37.69Z"/>
  <path class="cls-4" d="m1567.87,326.48c-1.73,2.49-3.45,4.98-5.18,7.47-43.12-30.39-86.23-60.79-129.35-91.18,2.5-3.26,5.01-6.53,7.51-9.79,42.34,31.17,84.67,62.34,127.01,93.5Z"/>
  <path class="cls-1" d="m1567.87,326.48c-42.34-31.17-84.67-62.34-127.01-93.5L1639.84,0c39.89,33.18,79.78,66.37,119.68,99.55-63.88,75.64-127.77,151.28-191.65,226.92Z"/>
</svg>