<?xml version="1.0" encoding="UTF-8"?>
<svg id="Stav" xmlns="http://www.w3.org/2000/svg" viewBox="0 0 339.68 342.7">
  <defs>
    <style>
      .cls-1 {
        fill: #efefea;
      }

      .cls-1, .cls-2, .cls-3, .cls-4 {
        stroke-width: 0px;
      }

      .cls-2 {
        fill: #e0e0e0;
      }

      .cls-3 {
        fill: #232322;
      }

      .cls-4 {
        fill: #e2e2dc;
      }
    </style>
  </defs>
  <path class="cls-3" d="m314.79,36.44C222.24,129.93,129.69,223.41,37.14,316.89l-11.62-11.24C118.22,212.36,210.92,119.07,303.62,25.78c3.72,3.56,7.45,7.11,11.17,10.67Z"/>
  <path class="cls-4" d="m315.62,35.24c-.28.4-.55.8-.83,1.21-3.72-3.56-7.45-7.11-11.17-10.67l1.27-1.08c3.58,3.51,7.15,7.03,10.73,10.54Z"/>
  <path class="cls-1" d="m315.62,35.24c-3.58-3.51-7.15-7.03-10.73-10.54L329.52,0c3.39,3.56,6.77,7.11,10.16,10.67-8.02,8.19-16.04,16.38-24.06,24.57Z"/>
  <path class="cls-2" d="m339.56,10.54c-3.35-3.51-6.69-7.03-10.04-10.54.78.07,4.79.53,7.62,4.03,2.14,2.64,2.38,5.5,2.42,6.51Z"/>
  <path class="cls-4" d="m24.8,306.44c.24-.26.48-.52.72-.79l11.62,11.24c-.34.34-.68.68-1.02,1.02-3.77-3.83-7.54-7.65-11.32-11.48Z"/>
  <path class="cls-1" d="m24.8,306.44c3.77,3.83,7.54,7.65,11.32,11.48l-25.8,24.79c-3.44-4.01-6.88-8.02-10.32-12.03l24.8-24.23Z"/>
</svg>