<?xml version="1.0" encoding="UTF-8"?>
<svg id="Stav_klik" data-name="Stav klik" xmlns="http://www.w3.org/2000/svg" viewBox="0 0 395.94 393.52">
  <defs>
    <style>
      .cls-1 {
        fill: #efefea;
      }

      .cls-1, .cls-2, .cls-3, .cls-4, .cls-5 {
        stroke-width: 0px;
      }

      .cls-2 {
        fill: #e0e0e0;
      }

      .cls-3 {
        fill: #faf5b9;
        opacity: .6;
      }

      .cls-4 {
        fill: #232322;
      }

      .cls-5 {
        fill: #e2e2dc;
      }
    </style>
  </defs>
  <path class="cls-3" d="m273.62,32.88c-9.22-1.74-22.49-3.22-38.08-1.15-18.18,2.42-26.81,7.98-34.36,3.5-5.39-3.2-10.52-11.69-8.82-35.23,42.85,24.23,69.43,23.75,86.13,18.12,8.28-2.79,24.15-10.24,38.17-3.42,7.5,3.65,11.96,10.15,14.56,15.15-6.04,3.22-18.87,8.95-35.61,8.05-9.29-.49-16.82-2.87-22-5.02Z"/>
  <path class="cls-3" d="m342.75,123.86c2.38-14.92,24.44-15.04,28.75-31.68,4.26-16.44-13.01-32.8-12.29-33.27.88-.57,28.47,22.73,26.49,51.33-1.23,17.79-13.01,24.73-10.29,40.19,2.18,12.38,12.05,21.17,20.54,26.83-8.35-3.2-21.43-9.43-33.86-21.51-10.12-9.84-21.15-20.56-19.34-31.89Z"/>
  <path class="cls-3" d="m289.89,58.93c4.67-1.71,10.33,1.37,10.2,2.86-.06.69-2.42,1.27-7.13,2.39-5.21,1.25-7.83,1.85-8.31,1.11-.76-1.19,1.7-5.06,5.24-6.36Z"/>
  <path class="cls-3" d="m340.15,88.38c1.74-2.29,2.71-4.06,3.11-3.88.46.2-.76,2.46-.41,5.95.2,1.99.71,2.38.36,3.18-1.08,2.47-7.69,2.67-8.31,1.11-.38-.96,1.78-1.81,5.24-6.36Z"/>
  <path class="cls-3" d="m352.24,18.32c4.25-.15,7.32,8.07,6.92,8.36-.22.16-1.25-2.21-3.84-3.11-3.94-1.36-7.53,2.04-8.31,1.11-.81-.98,1.89-6.24,5.24-6.36Z"/>
  <path class="cls-3" d="m376.71,30.37c1.99.6,3.7,2.62,3.4,3.96-.38,1.72-4.17,2.77-7.13,2.39-1.75-.23-2.23-.83-3.88-.73-2.73.16-4.32,1.98-4.43,1.84-.24-.29,6.68-9.08,12.03-7.46Z"/>
  <g>
    <path class="cls-4" d="m314.79,87.26c-92.55,93.48-185.1,186.96-277.65,280.44l-11.62-11.24c92.7-93.29,185.4-186.58,278.1-279.87,3.72,3.56,7.45,7.11,11.17,10.67Z"/>
    <path class="cls-5" d="m315.62,86.06c-.28.4-.55.8-.83,1.21-3.72-3.56-7.45-7.11-11.17-10.67l1.27-1.08c3.58,3.51,7.15,7.03,10.73,10.54Z"/>
    <path class="cls-1" d="m315.62,86.06c-3.58-3.51-7.15-7.03-10.73-10.54l24.63-24.7c3.39,3.56,6.77,7.11,10.16,10.67-8.02,8.19-16.04,16.38-24.06,24.57Z"/>
    <path class="cls-2" d="m339.56,61.36c-3.35-3.51-6.69-7.03-10.04-10.54.78.07,4.79.53,7.62,4.03,2.14,2.64,2.38,5.5,2.42,6.51Z"/>
    <path class="cls-5" d="m24.8,357.25c.24-.26.48-.52.72-.79l11.62,11.24c-.34.34-.68.68-1.02,1.02-3.77-3.83-7.54-7.65-11.32-11.48Z"/>
    <path class="cls-1" d="m24.8,357.25c3.77,3.83,7.54,7.65,11.32,11.48l-25.8,24.79c-3.44-4.01-6.88-8.02-10.32-12.03l24.8-24.23Z"/>
  </g>
</svg>